<?xml version="1.0" standalone="no"?>
<!DOCTYPE svg PUBLIC "-//W3C//DTD SVG 20010904//EN"
 "http://www.w3.org/TR/2001/REC-SVG-20010904/DTD/svg10.dtd">
<svg version="1.0" xmlns="http://www.w3.org/2000/svg"
 width="4800.000000pt" height="4800.000000pt" viewBox="0 0 4800.000000 4800.000000"
 preserveAspectRatio="xMidYMid meet">
<metadata>
Created by potrace 1.11, written by Peter Selinger 2001-2013
</metadata>
<g transform="translate(0.000000,4800.000000) scale(0.100000,-0.100000)"
fill="#000000" stroke="none">
<path d="M90 27940 c-10 -7 -12 -47 -10 -198 0 -29 -2 -57 -5 -62 -3 -6 -2
-10 3 -10 6 0 7 -13 3 -32 -4 -18 -8 -35 -9 -38 -1 -3 3 -22 7 -43 5 -20 5
-39 1 -42 -5 -3 -5 -18 -1 -33 4 -15 6 -38 4 -52 -3 -24 -4 -76 -3 -173 0 -27
-2 -53 -5 -58 -4 -5 -2 -9 3 -9 6 0 7 -13 3 -32 -10 -41 -10 -45 0 -86 4 -17
3 -34 -1 -37 -5 -3 -5 -18 -1 -33 4 -15 6 -38 4 -52 -3 -24 -4 -76 -3 -173 0
-27 -2 -53 -5 -58 -4 -5 -2 -9 3 -9 6 0 7 -13 3 -32 -10 -41 -10 -45 0 -86 4
-17 3 -34 -1 -37 -5 -3 -5 -18 -1 -33 4 -15 6 -38 4 -52 -3 -24 -4 -76 -3
-173 0 -27 -2 -53 -5 -58 -4 -5 -2 -9 3 -9 6 0 7 -14 1 -37 -4 -21 -8 -40 -7
-43 1 -3 5 -20 9 -38 4 -17 3 -34 -1 -37 -5 -3 -5 -18 -1 -33 4 -15 6 -38 4
-52 -3 -24 -4 -76 -3 -173 0 -27 -2 -53 -5 -58 -4 -5 -2 -9 3 -9 6 0 7 -14 1
-37 -4 -21 -8 -38 -8 -38 0 0 4 -17 8 -38 5 -20 5 -39 1 -42 -5 -3 -5 -18 -1
-33 4 -15 6 -38 4 -52 -3 -24 -4 -76 -3 -173 0 -27 -2 -53 -5 -58 -4 -5 -2 -9
3 -9 6 0 7 -13 3 -32 -10 -41 -10 -45 0 -86 4 -17 3 -34 -1 -37 -5 -3 -5 -18
-1 -33 4 -15 6 -38 4 -52 -3 -24 -4 -76 -3 -173 0 -27 -2 -53 -5 -58 -4 -5 -2
-9 3 -9 6 0 7 -13 3 -32 -10 -41 -10 -45 0 -86 4 -17 3 -34 -1 -37 -5 -3 -5
-18 -1 -33 4 -15 6 -38 4 -52 -3 -24 -4 -76 -3 -173 0 -27 -2 -53 -5 -58 -4
-5 -2 -9 3 -9 6 0 7 -13 3 -32 -10 -41 -10 -45 0 -86 4 -17 3 -34 -1 -37 -5
-3 -5 -18 -1 -33 4 -15 6 -38 4 -52 -3 -24 -4 -76 -3 -173 0 -27 -2 -53 -5
-58 -4 -5 -2 -9 3 -9 6 0 7 -14 1 -37 -4 -21 -8 -40 -7 -43 1 -3 5 -20 9 -38
4 -17 3 -34 -1 -37 -5 -3 -5 -18 -1 -33 4 -15 6 -38 4 -52 -3 -24 -4 -76 -3
-173 0 -27 -2 -53 -5 -58 -4 -5 -2 -9 3 -9 6 0 7 -14 1 -37 -4 -21 -8 -38 -8
-38 0 0 4 -17 8 -38 5 -20 5 -39 1 -42 -5 -3 -5 -18 -1 -33 4 -15 6 -38 4 -52
-3 -24 -4 -76 -3 -173 0 -27 -2 -53 -5 -58 -4 -5 -2 -9 3 -9 6 0 7 -13 3 -32
-4 -18 -8 -35 -9 -38 -1 -3 3 -22 7 -43 5 -20 5 -39 1 -42 -5 -3 -5 -18 -1
-33 4 -15 6 -38 4 -52 -3 -24 -4 -76 -3 -173 0 -27 -2 -53 -5 -58 -4 -5 -2 -9
3 -9 6 0 7 -14 1 -37 -4 -21 -8 -38 -8 -38 0 0 4 -17 8 -38 5 -20 5 -39 1 -42
-5 -3 -5 -18 -1 -33 6 -24 7 -57 1 -87 -6 -26 4 -31 60 -33 79 -2 77 -2 140 1
30 1 61 -1 68 -6 6 -5 12 -6 12 -1 0 5 36 9 80 9 44 0 80 -4 80 -8 0 -5 5 -5
12 -1 17 10 158 11 158 1 0 -5 6 -5 13 0 17 10 147 10 147 -1 0 -5 6 -4 12 1
7 5 51 8 98 6 47 -1 91 -3 98 -3 6 0 39 0 72 0 33 0 67 0 75 0 78 0 197 0 208
0 6 0 41 1 75 2 35 2 69 0 75 -4 6 -3 20 -2 32 2 14 5 27 4 34 -3 6 -6 11 -7
11 -2 0 6 32 10 70 10 39 0 70 -4 70 -8 0 -5 6 -5 13 0 17 11 189 11 205 0 6
-5 12 -6 12 -1 0 11 151 11 168 0 7 -4 12 -4 12 1 0 10 121 10 138 -1 7 -4 12
-3 12 1 0 5 35 7 78 5 97 -3 88 -3 145 1 26 1 47 -1 47 -6 0 -4 6 -5 13 0 17
10 147 10 147 -1 0 -5 6 -4 13 1 6 5 50 8 97 6 47 -1 91 -3 98 -3 6 0 39 0 72
0 33 0 67 0 75 0 78 0 197 0 208 0 6 0 41 1 75 2 35 2 69 0 75 -4 6 -3 20 -2
32 2 14 5 27 4 34 -3 6 -6 11 -7 11 -1 0 5 32 9 70 9 39 0 70 -4 70 -8 0 -5 6
-5 13 0 17 11 189 11 205 0 6 -5 12 -6 12 -1 0 11 151 11 168 0 7 -4 12 -4 12
1 0 10 121 10 138 -1 7 -4 12 -3 12 1 0 5 35 7 78 5 97 -3 88 -3 145 1 26 1
47 -1 47 -6 0 -4 6 -5 13 0 17 10 147 10 147 -1 0 -5 6 -4 12 1 7 5 51 8 98 6
47 -1 91 -3 98 -3 6 0 39 0 72 0 33 0 67 0 75 0 78 0 197 0 208 0 6 0 41 1 75
2 35 2 69 0 75 -4 6 -3 20 -2 32 2 14 5 27 4 34 -3 6 -6 11 -7 11 -1 0 5 32 9
70 9 39 0 70 -4 70 -8 0 -5 6 -5 12 0 18 11 190 11 206 0 6 -5 12 -6 12 -1 0
11 151 11 168 0 7 -4 12 -4 12 1 0 10 121 10 138 -1 7 -4 12 -3 12 1 0 5 24 8
53 8 l52 0 2 2928 2 2927 -212 1 c-117 1 -216 1 -220 0 -9 -1 -22 -2 -122 -2
-38 0 -77 0 -85 0 -27 0 -465 0 -480 0 -15 1 -130 0 -160 0 -27 0 -465 0 -480
0 -15 1 -130 0 -160 0 -27 0 -465 0 -480 0 -15 1 -130 0 -160 0 -27 0 -465 0
-480 0 -15 1 -130 0 -160 0 -27 0 -465 0 -480 0 -15 1 -130 0 -160 0 -27 0
-465 0 -480 0 -15 1 -130 0 -160 0 -27 0 -465 0 -480 0 -15 1 -130 0 -160 0
-27 0 -465 0 -480 0 -8 0 -44 0 -80 0 -36 0 -74 0 -85 0 -164 5 -429 5 -435 1z
m3220 -844 c103 -16 221 -43 305 -68 39 -12 72 -22 75 -23 89 -27 297 -143
380 -212 46 -38 160 -161 160 -173 0 -3 8 -15 18 -26 62 -71 152 -282 166
-391 3 -21 8 -49 11 -63 9 -39 5 -275 -5 -300 -1 -3 -2 -9 -1 -13 1 -5 -4 -27
-10 -50 -10 -39 -17 -66 -23 -93 -1 -7 -8 -19 -15 -28 -7 -9 -10 -16 -7 -16 4
0 -1 -15 -10 -32 -9 -18 -21 -41 -25 -50 -73 -149 -242 -318 -397 -397 -45
-23 -49 -27 -29 -29 18 -1 49 -9 80 -21 15 -6 27 -8 27 -5 0 4 6 2 13 -3 6 -6
30 -16 52 -23 74 -24 277 -130 305 -160 3 -3 23 -18 44 -34 40 -30 156 -143
156 -152 0 -3 15 -24 34 -47 18 -23 41 -55 50 -72 9 -16 21 -37 26 -45 14 -22
61 -126 64 -142 1 -7 9 -35 18 -63 10 -27 19 -65 22 -82 4 -18 9 -48 12 -65 9
-46 9 -243 0 -298 -4 -25 -10 -56 -12 -70 -11 -76 -54 -220 -65 -220 -5 0 -8
-3 -7 -7 5 -13 -53 -125 -89 -173 -44 -60 -101 -127 -137 -159 -16 -14 -36
-33 -45 -42 -9 -8 -27 -23 -41 -32 -14 -9 -44 -30 -68 -47 -23 -16 -47 -30
-52 -30 -5 0 -15 -6 -22 -13 -31 -32 -314 -145 -400 -161 -13 -3 -23 -5 -23
-6 0 -1 -8 -3 -19 -5 -10 -2 -39 -8 -65 -14 -89 -20 -154 -29 -266 -36 -44 -2
-81 -5 -82 -5 -5 -2 -123 -1 -130 1 -5 1 -12 0 -18 -1 -5 -1 -35 -2 -65 -1
-30 1 -62 2 -70 1 -8 0 -60 0 -115 0 -55 0 -134 0 -175 -1 -41 -1 -81 -1 -87
0 -15 1 -37 1 -55 0 -7 0 -22 0 -33 1 -25 1 -207 0 -305 -1 -41 -1 -81 -1 -87
0 -15 1 -37 1 -55 0 -7 0 -22 0 -33 1 -11 0 -69 0 -130 0 -60 1 -114 1 -120 1
-5 1 -30 0 -55 0 -25 0 -52 0 -60 0 -8 1 -19 0 -25 -1 -5 -1 -26 -2 -46 -1
l-37 1 0 2098 c0 1153 2 2100 4 2104 6 9 1535 3 1594 -6z"/>
<path d="M2489 26464 c-1 -2 -3 -8 -4 -14 -1 -5 -3 -11 -4 -12 -6 -8 -5 -98 1
-98 4 0 3 -11 -2 -25 -6 -15 -6 -25 0 -25 5 0 5 -12 0 -29 -4 -15 -4 -34 0
-41 5 -7 6 -20 2 -28 -7 -20 -7 -80 1 -88 3 -4 2 -15 -3 -25 -7 -12 -7 -20 0
-24 6 -4 8 -10 5 -15 -8 -14 -9 -165 -1 -179 4 -6 2 -11 -5 -11 -10 0 -10 -3
-1 -12 7 -7 8 -17 2 -28 -5 -9 -5 -22 0 -29 4 -8 4 -27 0 -42 -5 -17 -5 -29 0
-29 6 0 6 -10 1 -23 -5 -13 -5 -30 -1 -37 5 -8 6 -19 2 -24 -9 -16 -10 -46 0
-52 4 -3 6 -9 3 -14 -10 -16 -9 -160 1 -170 5 -5 121 -10 264 -10 280 0 314 2
425 27 17 4 32 7 35 8 55 11 200 76 228 102 7 7 17 13 21 13 23 0 133 127 165
190 19 39 33 70 31 70 -2 0 2 19 9 43 13 44 14 187 2 242 -12 52 -62 148 -101
193 -54 62 -188 147 -245 155 -8 2 -19 5 -25 9 -36 22 -157 31 -467 34 -186 1
-339 1 -339 -2z"/>
<path d="M2480 24715 c-5 -6 -5 -16 -1 -24 4 -7 5 -30 1 -51 -4 -21 -4 -44 1
-51 4 -7 3 -21 -2 -30 -5 -10 -5 -20 -1 -23 5 -3 6 -28 2 -56 -4 -28 -3 -53 2
-56 4 -3 4 -14 -2 -24 -6 -10 -6 -21 -2 -24 5 -3 6 -26 2 -50 -4 -25 -3 -51 1
-58 4 -6 3 -20 -2 -29 -5 -10 -5 -20 -1 -23 5 -3 6 -28 2 -56 -4 -28 -3 -53 2
-56 4 -3 4 -14 -2 -24 -6 -10 -6 -21 -2 -24 5 -3 6 -26 2 -50 -4 -25 -3 -51 1
-58 4 -6 3 -20 -2 -29 -5 -10 -5 -20 -1 -23 5 -3 6 -28 2 -56 -4 -28 -3 -53 2
-56 4 -3 4 -14 -2 -24 -7 -13 -7 -21 0 -25 6 -4 8 -10 6 -14 -6 -9 -8 -72 -4
-116 l3 -30 472 -2 c260 -1 487 2 505 7 18 5 53 12 78 15 24 4 52 11 62 16 10
5 18 8 18 5 0 -7 59 18 140 57 75 37 184 139 221 207 62 113 82 272 50 390
-30 110 -60 159 -152 251 -107 106 -303 182 -499 194 -36 3 -65 5 -65 6 0 1
-186 2 -413 3 -274 1 -417 -2 -422 -9z"/>
<path d="M7383 27942 l-152 -3 0 -2927 0 -2928 72 1 c40 0 78 -4 85 -9 7 -5
12 -5 12 0 0 5 32 9 70 9 39 0 70 -4 70 -8 0 -5 6 -5 13 0 17 11 189 11 205 0
6 -5 12 -6 12 -1 0 11 151 11 168 0 7 -4 12 -4 12 1 0 10 121 10 138 -1 7 -4
12 -3 12 1 0 5 35 7 78 5 97 -3 88 -3 145 1 26 1 47 -1 47 -6 0 -4 6 -5 13 0
17 10 147 10 147 -1 0 -5 6 -4 13 1 6 5 50 8 97 6 47 -1 91 -3 98 -3 6 0 39 0
72 0 33 0 67 0 75 0 78 0 197 0 208 0 6 0 41 1 75 2 35 2 69 0 75 -4 6 -3 20
-2 32 2 14 5 27 4 34 -3 6 -6 11 -7 11 -2 0 6 32 10 70 10 39 0 70 -4 70 -8 0
-5 6 -5 13 0 17 11 189 11 205 0 6 -5 12 -6 12 -1 0 11 151 11 168 0 7 -4 12
-4 12 1 0 10 121 10 138 -1 7 -4 12 -3 12 1 0 5 35 7 78 5 87 -3 79 -3 152 1
30 1 61 -1 68 -6 6 -5 12 -6 12 -1 0 11 151 11 168 0 7 -4 12 -4 12 1 0 10
121 10 138 -1 7 -4 12 -3 12 1 0 5 35 7 78 5 97 -3 88 -3 145 1 26 1 47 -1 47
-6 0 -4 6 -5 13 0 17 10 147 10 147 -1 0 -5 6 -4 13 1 6 5 50 8 97 6 47 -1 91
-3 98 -3 6 0 39 0 72 0 33 0 67 0 75 0 78 0 197 0 208 0 6 0 41 1 75 2 35 2
69 0 75 -4 6 -3 20 -2 32 2 14 5 27 4 34 -3 6 -6 11 -7 11 -1 0 5 32 9 70 9
39 0 70 -4 70 -8 0 -5 6 -5 13 0 17 11 189 11 205 0 6 -5 12 -6 12 -1 0 11
151 11 168 0 7 -4 12 -4 12 1 0 10 121 10 138 -1 7 -4 12 -3 12 1 0 5 35 7 78
5 97 -3 88 -3 145 1 26 1 47 -1 47 -6 0 -4 6 -5 13 0 17 10 147 10 147 -1 0
-5 6 -4 13 1 6 5 50 8 97 6 47 -1 91 -3 98 -3 19 0 130 0 147 0 62 0 74 4 74
24 0 21 0 432 0 471 1 11 0 43 0 70 0 28 0 57 0 65 2 40 -1 105 -5 112 -3 4
-2 8 3 8 4 0 7 28 6 62 -3 99 -3 204 -1 331 2 64 1 117 -3 117 -3 0 -2 25 1
56 3 30 3 57 0 59 -3 2 -3 29 0 60 3 31 2 58 -2 61 -5 3 -6 9 -3 14 3 5 6 63
5 127 0 65 -1 127 -1 138 1 11 0 43 0 70 0 28 0 57 0 65 2 40 -1 105 -5 112
-3 4 -2 8 3 8 4 0 7 28 6 62 -3 99 -3 204 -1 331 2 64 1 117 -3 117 -3 0 -2
25 1 56 3 30 3 57 0 59 -3 2 -3 29 0 60 3 30 4 58 1 61 -3 2 -4 28 -2 57 6
106 6 167 0 167 -3 0 -2 24 1 54 3 30 3 62 0 71 -3 10 -3 39 0 66 4 27 3 53 0
59 -4 6 -4 30 0 54 3 24 3 51 0 62 -4 10 -4 32 0 49 3 16 3 44 0 61 -4 16 -4
38 0 49 3 10 3 37 0 61 -4 24 -4 48 0 54 3 6 3 33 0 61 -4 27 -3 52 2 55 5 3
6 9 3 14 -3 5 -5 40 -5 77 0 37 1 77 1 88 0 11 0 38 0 60 0 57 0 53 -1 135 -1
121 -1 372 0 405 4 110 4 375 0 375 -3 0 -3 27 0 59 3 33 3 68 0 77 -4 10 -4
34 0 53 3 20 4 47 0 61 -4 14 -4 36 0 50 3 14 3 41 0 61 -4 19 -4 43 0 54 3
10 3 38 0 62 -4 24 -4 46 0 48 3 2 3 29 0 59 -3 31 -4 56 -1 56 4 0 6 25 6 55
0 30 -2 55 -6 55 -3 0 -2 25 1 55 3 31 4 58 1 61 -3 3 -4 22 -2 44 2 32 -1 39
-16 39 -346 0 -561 0 -573 0 -14 1 -128 1 -160 0 -27 0 -465 0 -480 0 -15 1
-130 0 -160 0 -27 0 -465 0 -480 0 -15 1 -130 0 -160 0 -27 0 -465 0 -480 0
-15 1 -130 0 -160 0 -27 0 -465 0 -480 0 -15 1 -130 0 -160 0 -27 0 -465 0
-480 0 -15 1 -130 0 -160 0 -27 0 -465 0 -480 0 -15 1 -130 0 -160 0 -27 0
-465 0 -480 0 -15 1 -130 0 -160 0 -27 0 -465 0 -480 0 -90 3 -142 2 -147 -2
-3 -3 -15 -3 -27 1 -11 4 -89 6 -173 4z m3087 -845 c14 -3 41 -8 60 -11 19 -3
46 -8 60 -11 14 -4 39 -8 57 -10 18 -2 37 -6 43 -10 6 -3 23 -9 38 -11 35 -7
165 -51 222 -77 25 -11 48 -20 53 -19 4 1 7 -2 7 -8 0 -5 6 -10 13 -10 17 0
185 -110 225 -147 17 -17 32 -29 32 -27 0 4 48 -49 91 -100 13 -16 30 -35 37
-42 7 -8 10 -14 7 -14 -4 0 5 -14 19 -31 14 -17 26 -37 26 -44 0 -7 4 -15 9
-17 18 -7 93 -202 106 -273 2 -16 9 -44 14 -60 8 -31 7 -323 -2 -360 -3 -11
-10 -40 -17 -65 -7 -25 -13 -49 -15 -55 -16 -71 -106 -231 -171 -305 -75 -85
-197 -184 -271 -221 -42 -20 -56 -38 -30 -40 63 -4 334 -118 381 -161 11 -10
24 -18 29 -18 8 0 80 -52 97 -70 3 -3 33 -31 67 -62 34 -32 59 -58 56 -58 -3
0 3 -8 14 -17 52 -47 164 -249 193 -348 1 -5 4 -14 5 -20 28 -97 38 -175 39
-300 0 -128 -8 -197 -34 -303 -51 -203 -154 -368 -321 -517 -69 -61 -281 -190
-293 -178 -3 4 -6 2 -6 -4 0 -9 -12 -16 -50 -27 -3 -1 -30 -11 -60 -23 -53
-22 -178 -59 -230 -69 -14 -3 -41 -9 -60 -14 -61 -15 -286 -44 -317 -41 -14 1
-36 1 -55 0 -7 0 -22 0 -33 1 -16 0 -182 1 -252 0 -7 0 -24 0 -38 0 -14 0 -33
0 -42 0 -10 0 -63 0 -118 0 -55 0 -134 0 -175 -1 -41 -1 -81 -1 -87 0 -15 1
-37 1 -55 0 -7 0 -22 0 -33 1 -25 1 -207 0 -305 -1 -41 -1 -81 -1 -87 0 -15 1
-37 1 -55 0 -7 0 -22 0 -33 1 -11 0 -67 0 -125 0 -58 0 -123 1 -146 2 -22 1
-45 -2 -51 -5 -18 -11 -26 11 -23 67 2 55 2 78 0 141 -1 22 -1 67 -1 100 1 33
1 91 1 129 1 38 3 73 6 78 3 4 0 8 -6 8 -6 0 -8 5 -5 11 4 5 6 38 6 72 -2 100
-2 204 0 272 1 40 1 56 -1 130 -1 22 -1 67 -1 100 1 33 1 91 1 129 1 38 3 73
6 78 3 4 0 8 -6 8 -6 0 -8 5 -5 11 4 5 6 38 6 72 -2 76 -2 105 -1 182 0 33 0
91 0 129 1 38 3 73 6 78 3 4 0 8 -6 8 -6 0 -8 5 -5 11 4 5 6 40 6 77 -2 82 -1
129 2 162 1 14 -1 40 -4 58 -5 21 -3 32 5 33 7 0 7 2 -2 6 -6 2 -10 9 -7 13 8
12 9 185 2 197 -3 5 -2 15 2 22 5 7 5 28 1 47 -5 23 -4 34 4 35 7 0 7 2 -2 6
-6 2 -10 9 -7 13 8 12 9 185 2 197 -3 5 -2 15 2 22 5 7 5 28 1 47 -5 23 -4 34
4 35 7 0 7 2 -2 6 -6 2 -10 9 -7 13 8 12 9 185 2 197 -3 5 -2 15 2 22 5 7 5
28 1 47 -5 23 -4 34 4 35 7 0 7 2 -2 6 -6 2 -10 9 -7 13 4 7 7 122 4 200 0 8
0 24 1 35 0 11 1 58 1 104 -1 46 2 87 5 92 3 5 0 9 -6 9 -6 0 -8 5 -5 11 4 5
6 38 6 72 -2 76 -2 105 -1 182 0 33 0 91 0 129 1 38 3 73 6 78 3 4 0 8 -6 8
-6 0 -9 4 -5 10 8 13 10 124 2 137 -4 5 -4 13 -1 16 8 8 1562 2 1594 -6z"/>
<path d="M9632 25923 l0 -544 298 2 c296 1 300 1 412 31 62 16 118 34 125 40
7 6 13 7 13 4 0 -4 12 1 28 11 15 10 44 28 65 38 43 23 130 102 168 155 14 19
39 67 54 105 24 59 29 87 31 175 4 151 -28 237 -128 349 -21 22 -41 41 -44 41
-3 0 -20 11 -37 24 -31 23 -97 55 -147 72 -31 10 -27 9 -75 19 -22 4 -49 10
-60 13 -11 3 -174 6 -361 7 l-341 3 -1 -545z"/>
<path d="M9635 24720 c-1 -3 -3 -263 -3 -578 l0 -573 492 4 c270 2 502 7 516
10 26 7 59 15 98 23 45 9 158 55 194 79 21 14 41 25 46 25 15 0 105 95 137
145 61 97 79 165 79 300 -1 95 -5 135 -16 135 -4 0 -8 9 -8 20 0 17 -8 34 -52
111 -7 13 -19 29 -25 37 -7 7 -18 21 -25 31 -28 38 -187 147 -228 156 -3 0
-15 6 -27 13 -13 7 -23 10 -23 7 0 -3 -15 1 -34 9 -18 8 -52 16 -75 20 -23 3
-46 8 -50 10 -19 12 -202 18 -584 19 -225 1 -410 0 -412 -3z"/>
<path d="M14567 27944 c-2 -3 -41 -5 -86 -5 l-81 0 -1 -32 c0 -18 -1 -76 -2
-130 -1 -53 1 -97 4 -97 3 0 3 -20 -1 -45 -4 -24 -3 -50 1 -57 4 -6 6 -15 4
-19 -4 -5 -5 -46 -5 -124 1 -103 1 -94 -1 -213 0 -51 1 -95 4 -98 2 -2 1 -21
-2 -42 -4 -20 -4 -54 -1 -74 4 -21 4 -38 1 -38 -5 0 -5 -71 -1 -190 0 -14 0
-71 0 -128 0 -57 2 -107 5 -112 3 -5 1 -11 -3 -14 -5 -3 -6 -26 -2 -51 4 -25
4 -45 1 -45 -5 0 -5 -96 0 -110 1 -3 1 -9 0 -13 -1 -5 -1 -52 -1 -105 1 -135
1 -133 0 -173 -1 -19 0 -39 1 -45 1 -5 0 -13 -1 -19 -1 -5 -1 -35 0 -65 0 -30
1 -62 0 -70 0 -8 0 -33 1 -55 0 -22 0 -47 0 -55 0 -8 0 -71 0 -140 0 -145 0
-144 -1 -191 -1 -19 0 -39 1 -45 1 -5 0 -13 -1 -19 -1 -5 -1 -35 0 -65 0 -30
1 -62 0 -70 0 -8 0 -33 1 -55 0 -22 0 -47 0 -55 0 -8 0 -62 0 -120 0 -58 0
-112 0 -120 -3 -95 0 -213 4 -220 3 -5 1 -11 -3 -14 -5 -3 -6 -26 -2 -51 4
-25 4 -45 1 -45 -6 0 -6 -98 0 -105 2 -2 2 -38 -1 -80 -3 -42 -2 -79 1 -81 4
-2 3 -21 0 -41 -4 -21 -4 -55 -1 -75 4 -21 4 -38 1 -38 -3 0 -6 -56 -6 -125 0
-69 3 -125 6 -125 3 0 3 -20 -1 -45 -4 -24 -3 -50 1 -57 4 -6 6 -15 4 -19 -4
-5 -5 -46 -5 -124 1 -103 1 -94 -1 -213 0 -51 1 -95 4 -98 2 -2 1 -21 -2 -42
-4 -20 -4 -54 -1 -74 4 -21 4 -38 1 -38 -5 0 -5 -71 -1 -190 0 -14 0 -71 0
-128 0 -57 2 -107 5 -112 3 -5 1 -11 -3 -14 -5 -3 -6 -26 -2 -51 4 -25 4 -45
1 -45 -6 0 -6 -98 0 -105 2 -2 2 -40 -1 -84 -3 -45 -2 -81 1 -81 4 0 3 -17 0
-37 -4 -21 -4 -55 -1 -75 4 -21 4 -38 1 -38 -3 0 -5 -19 -3 -43 4 -43 8 -47
47 -47 28 0 165 0 178 0 6 0 42 1 80 2 37 2 67 -1 67 -5 0 -5 6 -5 13 0 17 10
147 10 147 -1 0 -5 6 -4 13 1 6 5 50 8 97 6 47 -1 91 -3 98 -3 6 0 39 0 72 0
33 0 67 0 75 0 78 0 197 0 208 0 6 0 41 1 75 2 35 2 69 0 75 -4 6 -3 20 -2 32
2 14 5 27 4 34 -3 6 -6 11 -7 11 -2 0 6 32 10 70 10 39 0 70 -4 70 -8 0 -5 6
-5 13 0 17 11 189 11 205 0 6 -5 12 -6 12 -1 0 11 151 11 168 0 7 -4 12 -4 12
1 0 10 121 10 138 -1 7 -4 12 -3 12 1 0 5 35 7 78 5 97 -3 88 -3 145 1 26 1
47 -1 47 -6 0 -4 6 -5 13 0 17 10 147 10 147 -1 0 -5 6 -4 13 1 6 5 50 8 97 6
47 -1 91 -3 98 -3 6 0 39 0 72 0 33 0 67 0 75 0 78 0 197 0 208 0 6 0 41 1 75
2 35 2 69 0 75 -4 6 -3 20 -2 32 2 14 5 27 4 34 -3 6 -6 11 -7 11 -2 0 6 32
10 70 10 39 0 70 -4 70 -8 0 -5 6 -5 13 0 17 11 189 11 205 0 6 -5 12 -6 12
-1 0 11 151 11 168 0 7 -4 12 -4 12 1 0 10 121 10 138 -1 7 -4 12 -3 12 1 0 5
35 7 78 5 97 -3 88 -3 145 1 26 1 47 -1 47 -6 0 -4 6 -5 13 0 17 10 147 10
147 -1 0 -5 6 -4 13 1 6 5 50 8 97 6 47 -1 91 -3 98 -3 6 0 39 0 72 0 33 0 67
0 75 0 78 0 197 0 208 0 6 0 41 1 75 2 35 2 69 0 75 -4 6 -3 20 -2 32 2 14 5
27 4 34 -3 6 -6 11 -7 11 -1 0 5 32 9 70 9 39 0 70 -4 70 -8 0 -5 6 -5 13 0
17 11 189 11 205 0 6 -5 12 -6 12 -1 0 11 151 11 168 0 7 -4 12 -4 12 1 0 10
121 10 138 -1 7 -4 12 -3 12 1 0 5 35 7 78 5 42 -1 82 -2 87 -2 6 0 48 1 95 2
l85 3 2 2928 2 2927 -92 1 c-51 1 -96 1 -100 0 -14 -2 -458 -4 -527 -2 -15 1
-130 0 -160 0 -27 0 -465 0 -480 0 -15 1 -130 0 -160 0 -27 0 -465 0 -480 0
-15 1 -130 0 -160 0 -27 0 -465 0 -480 0 -15 1 -130 0 -160 0 -27 0 -465 0
-480 0 -15 1 -130 0 -160 0 -27 0 -465 0 -480 0 -15 1 -130 0 -160 0 -27 0
-465 0 -480 0 -15 1 -130 0 -160 0 -27 0 -465 0 -480 0 -15 1 -130 0 -160 0
-27 0 -465 0 -480 0 -90 3 -142 2 -147 -2 -3 -3 -15 -2 -28 3 -13 5 -25 7 -28
4z m3188 -784 c4 7 12 7 25 0 13 -7 21 -7 25 0 4 6 11 8 16 4 5 -3 54 -7 107
-9 165 -5 352 -19 421 -31 148 -27 383 -86 521 -131 41 -14 81 -26 90 -28 17
-3 138 -48 285 -106 l100 -39 0 -390 c0 -215 -1 -390 -3 -390 -5 0 -96 51
-108 61 -6 5 -13 7 -16 4 -3 -3 -11 1 -18 10 -7 8 -19 15 -28 15 -8 0 -23 6
-31 13 -9 7 -45 26 -81 41 -36 16 -87 39 -115 52 -88 39 -344 132 -430 155
-172 46 -220 57 -227 53 -4 -3 -8 0 -8 6 0 6 -4 9 -8 6 -5 -3 -24 -1 -43 4
-19 5 -50 11 -69 13 -19 3 -42 7 -50 10 -31 12 -260 30 -370 31 -87 0 -229
-11 -252 -19 -7 -2 -29 -6 -48 -9 -19 -2 -57 -9 -85 -15 -27 -6 -60 -12 -73
-15 -12 -3 -26 -7 -30 -10 -5 -3 -19 -7 -33 -9 -89 -17 -314 -113 -434 -187
-241 -148 -433 -366 -537 -613 -44 -105 -45 -107 -62 -162 -70 -235 -92 -542
-51 -730 17 -76 22 -105 17 -105 -2 0 1 -7 8 -15 7 -9 14 -23 15 -33 2 -23 16
-74 24 -87 3 -5 6 -12 7 -15 7 -35 67 -160 142 -296 7 -13 17 -24 22 -24 5 0
12 -10 15 -21 15 -46 209 -243 301 -304 32 -22 64 -45 71 -51 6 -6 25 -17 42
-24 17 -7 31 -17 31 -23 0 -6 3 -8 6 -4 3 3 24 -5 45 -19 21 -13 39 -22 39
-19 0 3 19 -4 42 -16 56 -29 194 -77 268 -93 8 -2 34 -9 58 -15 24 -7 60 -14
80 -17 20 -2 46 -7 57 -11 11 -4 30 -6 42 -4 13 1 28 -1 33 -4 12 -8 79 -14
208 -19 46 -2 86 -6 88 -9 3 -3 19 -1 35 3 18 5 29 5 29 -1 0 -6 4 -7 10 -4 5
3 38 8 71 10 34 3 78 7 98 10 20 3 56 8 81 11 25 3 54 7 65 9 29 4 237 55 255
62 17 7 27 10 55 17 36 8 178 58 225 78 25 11 54 22 65 24 11 2 21 8 23 14 2
5 10 10 18 10 8 0 37 11 64 25 27 14 56 25 65 25 8 0 15 4 15 8 0 5 30 23 68
41 89 42 152 77 165 90 6 6 19 11 29 11 10 0 18 4 18 8 0 5 19 19 43 32 23 12
50 30 60 38 9 8 18 11 18 6 1 -5 2 -186 3 -402 l1 -393 -90 -44 c-119 -57
-177 -83 -255 -112 -71 -27 -266 -93 -290 -98 -8 -1 -35 -9 -60 -16 -25 -7
-49 -13 -55 -15 -19 -4 -65 -14 -92 -19 -16 -3 -36 -8 -45 -11 -10 -3 -30 -7
-45 -10 -16 -2 -39 -7 -53 -9 -14 -3 -36 -8 -50 -10 -14 -3 -45 -8 -70 -11
-54 -6 -103 -12 -150 -19 -115 -15 -380 -21 -535 -11 -169 11 -224 18 -380 48
-60 11 -119 22 -130 24 -11 2 -36 8 -55 13 -19 5 -63 17 -98 26 -35 10 -114
35 -175 57 -62 22 -118 40 -124 40 -7 1 -13 5 -13 10 0 4 -6 8 -14 8 -43 0
-396 207 -396 231 0 5 -6 9 -13 9 -7 0 -28 12 -45 28 -17 15 -46 38 -63 52
-40 31 -229 216 -229 225 0 3 -12 18 -27 33 -16 15 -39 44 -53 65 -14 20 -28
37 -32 37 -5 0 -8 5 -8 10 0 6 -9 20 -20 32 -11 12 -20 28 -20 35 0 7 -4 13
-9 13 -5 0 -16 16 -25 35 -9 19 -21 35 -26 35 -6 0 -10 9 -10 19 0 11 -4 22
-9 25 -29 18 -175 361 -195 457 -3 13 -12 48 -20 77 -8 28 -12 52 -10 52 3 0
1 8 -4 18 -5 9 -12 37 -15 62 -4 25 -8 54 -10 65 -6 24 -18 126 -22 180 -5 55
-5 232 0 275 10 86 23 185 25 185 1 0 3 9 5 20 14 100 76 313 125 430 52 123
191 380 219 405 4 3 17 22 31 42 14 21 28 38 33 38 4 0 7 5 7 10 0 15 49 69
175 193 126 125 116 116 215 190 103 76 219 146 352 211 105 52 254 114 288
121 8 2 16 4 18 5 1 2 5 3 10 5 4 1 14 4 22 8 57 22 229 70 295 81 17 3 41 8
55 11 96 19 221 32 394 40 55 3 101 7 104 10 3 2 13 0 23 -5 12 -7 20 -7 24 0z"/>
<path d="M23848 27945 c-2 -2 -50 -5 -107 -6 -57 -1 -122 -6 -144 -11 -130
-29 -265 -137 -325 -260 -56 -114 -55 -104 -56 -663 l-1 -470 728 -1 727 -2 1
52 c0 28 0 126 -1 218 -1 182 7 220 56 264 38 36 117 50 159 28 14 -7 25 -11
25 -8 0 2 8 -4 19 -13 10 -10 49 -45 87 -78 37 -33 89 -78 114 -101 25 -22 58
-52 73 -65 16 -13 46 -40 66 -59 20 -19 65 -60 100 -90 35 -30 77 -68 95 -85
18 -16 66 -59 106 -95 40 -36 85 -76 100 -90 15 -14 56 -50 90 -80 35 -30 78
-68 95 -85 18 -16 56 -50 85 -75 29 -25 73 -65 99 -88 25 -24 60 -56 77 -70
32 -28 157 -138 205 -182 15 -14 60 -54 100 -90 40 -36 93 -84 118 -106 25
-23 89 -79 141 -125 52 -46 102 -91 110 -99 9 -8 52 -46 96 -85 121 -107 199
-187 213 -220 19 -44 23 -102 11 -141 -11 -32 -81 -110 -161 -178 -34 -28
-150 -133 -258 -232 -31 -28 -69 -62 -84 -75 -15 -13 -50 -44 -77 -69 -27 -25
-64 -58 -82 -75 -120 -107 -196 -175 -234 -210 -24 -22 -76 -69 -115 -105 -40
-36 -83 -74 -95 -85 -12 -11 -33 -29 -45 -40 -35 -30 -253 -227 -259 -234 -3
-3 -43 -40 -90 -81 -79 -69 -142 -127 -211 -191 -16 -14 -52 -46 -81 -71 -29
-25 -69 -61 -89 -79 -83 -78 -149 -137 -208 -189 -35 -30 -69 -60 -75 -66 -44
-42 -152 -37 -204 10 -57 51 -54 -40 -54 1462 0 761 -3 1384 -6 1385 -4 1
-328 2 -720 3 -465 1 -717 -2 -722 -9 -10 -12 -7 -3317 3 -3360 16 -67 82
-178 140 -236 33 -32 68 -61 78 -64 11 -4 19 -11 19 -16 0 -5 6 -9 13 -9 8 0
28 -7 45 -15 30 -15 49 -21 102 -31 36 -6 724 -6 790 1 30 3 79 10 107 16 29
6 55 10 58 9 3 0 19 7 35 15 16 8 31 15 32 14 12 -7 197 91 233 123 8 7 20 18
27 23 12 9 102 90 242 216 26 24 67 62 90 84 24 22 78 72 121 110 43 39 100
90 126 115 26 25 78 72 115 105 37 33 86 78 110 101 24 22 69 63 99 90 31 27
83 74 114 104 32 30 78 73 102 94 24 21 86 78 137 125 52 47 104 95 116 106
13 11 42 37 65 58 l41 38 -1 -49 c-1 -27 0 -53 3 -58 3 -5 2 -18 -2 -29 -4
-11 -4 -32 1 -47 4 -15 4 -30 -1 -33 -5 -3 -7 -11 -5 -18 9 -24 12 -78 5 -82
-4 -3 -4 -21 0 -40 4 -19 5 -35 1 -35 -3 0 -5 -26 -4 -57 2 -71 3 -93 4 -162
0 -30 2 -58 5 -63 3 -4 2 -8 -3 -8 -4 0 -8 -22 -8 -50 0 -27 3 -50 6 -50 4 0
3 -18 -1 -40 -4 -22 -4 -40 -1 -40 3 0 4 -31 1 -69 -3 -37 -2 -85 1 -105 3
-20 3 -36 0 -36 -8 0 -7 -48 1 -56 4 -3 3 -18 -1 -32 -4 -15 -5 -38 -1 -52 3
-14 3 -44 0 -67 -4 -23 -4 -47 0 -53 4 -7 4 -26 1 -43 -4 -18 -4 -49 0 -69 3
-21 3 -38 0 -38 -4 0 -5 -16 -3 -35 4 -34 6 -35 46 -35 340 -3 1499 0 1503 4
3 2 6 420 6 928 l2 923 395 1 c217 1 395 2 395 4 0 1 30 3 67 5 63 3 145 11
213 21 17 2 46 6 65 8 41 6 85 14 120 22 14 3 37 7 53 9 64 9 333 89 404 121
17 8 38 14 46 14 8 0 20 7 27 15 7 8 18 15 26 15 19 0 189 89 275 145 132 85
215 152 318 257 101 103 121 126 121 137 0 5 4 11 9 13 10 3 81 95 81 104 0 3
13 24 29 47 60 88 142 266 182 395 20 62 48 86 50 40 0 -13 0 -744 1 -1625 l0
-1603 32 -1 c40 0 1448 0 1461 0 6 1 10 108 10 301 1 164 3 302 6 305 13 13
36 -10 79 -78 52 -82 221 -257 295 -304 28 -18 55 -36 60 -40 76 -56 355 -178
450 -196 11 -2 27 -7 35 -10 8 -3 40 -11 70 -17 170 -35 317 -52 487 -54 55
-1 93 -5 93 -11 0 -7 3 -7 8 0 4 6 27 10 52 11 50 1 194 14 225 20 11 3 31 7
45 9 103 17 215 49 330 92 94 36 220 92 230 103 3 3 23 14 44 25 22 11 107 64
189 118 83 53 158 97 168 97 20 0 32 -15 36 -45 1 -11 4 -42 7 -70 2 -27 8
-84 12 -125 4 -41 7 -87 7 -102 -1 -24 4 -28 26 -29 32 0 1081 0 1239 0 l112
1 -5 33 c-3 17 -10 57 -15 87 -11 64 -18 114 -25 190 -3 30 -7 73 -10 95 -10
83 -17 205 -19 351 -2 83 -5 155 -8 160 -3 5 -2 18 2 29 4 11 4 30 -1 43 -6
15 -5 22 3 22 9 0 9 3 0 12 -7 7 -8 17 -2 28 5 9 5 22 0 29 -4 8 -4 27 0 42 5
17 5 29 0 29 -6 0 -6 10 -1 23 5 13 5 30 1 37 -5 8 -6 19 -2 25 7 9 7 26 2 50
-1 6 -1 25 0 44 5 93 4 151 -2 151 -4 0 -3 11 2 25 5 13 6 27 1 29 -4 3 -5 26
-1 51 4 25 3 48 -2 51 -4 3 -4 14 2 24 6 10 6 21 2 24 -5 3 -6 28 -2 56 4 28
3 53 -2 56 -4 3 -4 14 2 24 6 10 6 21 2 24 -5 3 -6 26 -2 50 4 25 3 51 -1 58
-4 6 -3 20 2 29 5 10 5 20 1 23 -5 3 -6 28 -2 56 4 28 3 53 -2 56 -4 3 -4 14
2 24 6 10 6 21 1 24 -4 3 -5 24 -1 46 4 22 4 40 -1 40 -5 0 -5 10 -1 23 9 25
8 74 -1 83 -4 4 -2 15 3 25 7 11 7 20 0 24 -5 3 -7 11 -4 18 7 21 9 177 2 177
-4 0 -3 11 2 25 5 14 6 25 2 25 -4 0 -7 19 -8 43 -1 40 -8 101 -20 160 -7 34
22 38 36 5 53 -131 144 -375 142 -380 -1 -5 3 -8 10 -8 6 0 9 -3 5 -6 -3 -4 0
-18 7 -33 8 -14 46 -109 86 -211 39 -102 77 -198 84 -215 7 -16 27 -66 43
-110 17 -44 34 -89 38 -100 5 -11 7 -23 7 -27 -1 -5 3 -8 8 -8 6 0 10 -6 10
-12 0 -11 46 -136 71 -193 5 -11 18 -45 29 -75 11 -30 25 -65 30 -77 6 -13 14
-33 19 -45 5 -13 19 -48 31 -78 12 -30 23 -59 25 -65 1 -5 7 -21 12 -35 16
-38 134 -336 235 -595 50 -126 96 -243 103 -260 7 -16 28 -68 45 -115 18 -47
38 -98 45 -115 59 -138 86 -221 82 -244 -6 -29 -63 -151 -104 -221 -86 -149
-227 -285 -363 -351 -130 -63 -167 -71 -355 -75 -130 -2 -198 2 -305 20 -50 9
-193 56 -273 91 -69 29 -121 38 -132 23 -1 -2 -16 -50 -35 -108 -18 -58 -37
-116 -43 -130 -6 -14 -11 -29 -12 -35 -2 -5 -24 -73 -50 -150 -26 -77 -48
-144 -50 -150 -1 -5 -5 -17 -8 -25 -19 -49 -177 -533 -177 -544 0 -12 67 -46
145 -73 22 -8 49 -19 60 -24 12 -6 27 -11 35 -13 8 -2 22 -6 30 -9 33 -13 111
-37 134 -41 14 -3 29 -7 34 -10 5 -3 19 -7 33 -10 13 -3 34 -7 47 -10 12 -4
30 -8 40 -10 9 -2 35 -9 57 -14 22 -6 56 -13 75 -16 19 -3 46 -8 60 -11 14 -3
39 -8 55 -10 17 -2 46 -6 65 -10 19 -3 58 -8 85 -10 28 -3 84 -8 125 -12 96
-9 347 -9 425 -1 59 7 206 34 235 44 8 3 15 5 15 4 0 -1 14 4 30 10 17 7 37
13 45 15 8 2 29 9 45 16 17 7 32 13 35 14 3 1 18 7 33 13 16 7 33 12 38 12 5
0 9 4 9 9 0 5 10 11 23 15 20 5 191 103 221 127 62 49 133 105 144 114 26 21
188 182 222 221 19 21 63 75 98 119 35 44 69 88 77 98 8 9 11 17 7 17 -4 0 -2
4 4 8 28 19 200 297 280 453 27 52 52 97 57 100 5 3 8 9 8 13 -1 6 90 205 109
238 6 10 10 25 10 33 0 8 5 15 10 15 6 0 10 6 10 13 0 8 24 68 54 136 30 67
55 123 55 124 -1 7 121 312 131 329 6 10 10 23 10 29 0 6 7 25 15 42 8 18 35
86 60 152 26 66 53 134 60 150 7 17 25 62 40 100 15 39 33 84 40 100 7 17 18
46 25 65 7 19 19 49 26 65 7 17 38 95 69 175 32 80 63 159 70 175 7 17 37 93
66 170 30 77 56 142 59 145 3 3 6 10 7 15 7 29 48 131 56 136 5 3 8 10 8 15
-1 13 8 44 25 84 19 45 28 65 49 120 10 25 23 59 30 75 7 17 54 136 105 265
52 129 98 238 104 242 15 10 28 -2 21 -21 -17 -41 -41 -225 -40 -308 0 -40 -4
-73 -8 -73 -4 0 -3 -8 2 -18 6 -10 6 -24 1 -32 -5 -8 -7 -17 -4 -21 2 -4 6
-47 9 -95 5 -86 11 -152 22 -224 7 -50 9 -60 18 -105 4 -22 9 -47 10 -55 7
-32 24 -97 38 -142 8 -27 13 -48 10 -48 -3 0 1 -7 8 -17 8 -9 13 -17 11 -17
-9 -3 46 -141 105 -261 62 -127 74 -149 128 -228 22 -32 45 -66 50 -75 6 -9
12 -19 15 -22 3 -3 25 -30 50 -60 69 -86 135 -154 242 -254 15 -13 45 -37 65
-53 21 -15 45 -34 53 -42 12 -12 180 -122 255 -168 26 -16 169 -87 175 -88 3
0 10 -3 15 -7 28 -17 274 -110 330 -125 6 -1 44 -11 85 -23 41 -11 86 -23 100
-26 14 -2 36 -7 50 -9 26 -6 55 -11 105 -21 17 -3 41 -8 55 -9 26 -4 80 -11
140 -20 129 -18 468 -24 650 -11 99 6 127 9 250 27 41 6 93 13 114 15 74 10
269 52 384 84 42 12 82 23 87 24 6 1 15 4 20 7 6 3 43 16 83 29 61 19 74 27
86 54 14 29 95 266 101 290 1 6 5 20 9 31 10 26 2 1 122 360 58 171 106 315
108 320 2 6 4 13 5 17 1 4 8 23 16 42 10 23 11 37 5 41 -6 4 -8 10 -5 14 5 9
-38 31 -59 31 -13 0 -43 -15 -155 -75 -35 -19 -70 -35 -77 -35 -8 0 -14 -4
-14 -9 0 -5 -10 -12 -22 -16 -13 -4 -25 -8 -28 -10 -3 -1 -23 -10 -45 -19 -22
-10 -53 -24 -70 -32 -28 -12 -144 -57 -155 -59 -3 -1 -36 -11 -75 -24 -38 -12
-78 -24 -87 -27 -10 -2 -26 -6 -35 -9 -179 -49 -371 -71 -598 -69 -385 3 -662
72 -875 218 -55 37 -158 138 -190 186 -13 19 -27 37 -31 40 -10 8 -75 150 -92
200 -26 80 -38 124 -40 155 l-2 30 1430 0 c787 1 1437 -1 1445 -3 13 -3 15
-102 15 -850 -1 -466 1 -854 3 -862 3 -13 94 -15 747 -14 410 0 747 3 749 5 3
3 5 22 6 44 1 104 3 191 2 205 0 14 -2 136 -2 173 0 9 0 23 -1 30 0 6 0 45 1
85 1 40 0 75 -3 78 -3 3 -1 19 3 35 5 17 5 31 -1 35 -5 3 -7 10 -3 15 3 5 5
42 4 82 -1 39 -1 81 0 92 1 11 1 27 1 35 -1 8 0 38 0 65 1 28 1 57 0 65 0 8 0
47 0 85 1 39 1 77 1 85 0 15 -2 138 -2 175 0 11 1 43 1 70 1 28 1 57 0 65 0 8
0 47 0 85 1 39 1 77 1 85 -4 149 8 485 18 485 2 0 9 34 14 70 3 17 8 41 11 55
3 14 8 36 11 50 18 89 122 344 159 387 5 7 26 35 45 64 62 91 187 208 280 263
87 51 234 114 254 108 4 -2 14 3 22 9 8 6 14 9 14 6 0 -2 26 1 58 7 31 7 74
12 95 12 20 -1 37 1 37 4 0 12 205 -5 245 -20 14 -5 38 -12 54 -15 l27 -5 58
183 c31 100 63 198 71 217 18 45 155 473 154 480 -1 4 14 45 37 105 4 11 9 27
10 35 1 8 14 48 28 89 14 41 26 82 26 91 0 30 -43 59 -95 65 -28 3 -70 8 -95
11 -115 13 -399 19 -446 10 -12 -2 -45 -7 -75 -11 -30 -4 -72 -11 -94 -16 -22
-6 -46 -11 -54 -11 -8 -1 -58 -16 -110 -35 -53 -18 -100 -35 -106 -36 -42 -12
-218 -110 -249 -139 -11 -10 -24 -18 -29 -18 -4 0 -14 -6 -22 -12 -7 -7 -38
-34 -68 -61 -100 -86 -199 -192 -237 -253 -8 -13 -18 -24 -22 -24 -5 0 -8 -4
-8 -9 0 -5 -18 -36 -39 -68 -21 -33 -55 -91 -75 -130 -27 -53 -41 -70 -52 -66
-8 3 -13 12 -10 19 3 7 1 16 -5 20 -6 3 -6 10 -1 17 5 7 6 21 2 32 -4 11 -4
30 1 43 5 12 5 22 0 22 -5 0 -5 17 -1 38 4 21 3 48 -1 60 -5 12 -4 22 0 22 8
0 8 21 1 40 -1 3 -2 9 -1 14 5 28 3 165 -3 175 -4 6 -3 11 3 11 8 0 8 20 1 40
-1 3 -2 9 -1 14 5 28 3 165 -3 175 -4 6 -3 11 1 11 16 0 9 40 -7 41 -8 1 -315
2 -683 3 l-668 1 3 -35 c1 -20 -1 -41 -5 -47 -4 -7 -3 -14 3 -18 7 -4 7 -12 0
-25 -6 -10 -6 -21 -2 -24 5 -3 6 -26 2 -51 -4 -25 -3 -45 1 -45 5 0 4 -11 -1
-25 -6 -15 -6 -26 1 -30 5 -4 6 -11 3 -17 -10 -16 -11 -50 -2 -75 4 -13 3 -23
-2 -23 -5 0 -5 -12 0 -30 5 -16 5 -30 1 -30 -4 0 -5 -20 -1 -45 4 -25 3 -45
-1 -45 -5 0 -4 -11 1 -25 5 -14 6 -25 2 -25 -4 0 -7 -38 -7 -85 0 -47 3 -85 7
-85 4 0 3 -12 -3 -27 -6 -16 -10 -28 -10 -28 0 0 4 -12 10 -27 6 -17 7 -28 1
-28 -6 0 -6 -9 0 -25 5 -13 6 -26 2 -29 -9 -5 -7 -70 2 -85 4 -5 2 -12 -4 -16
-6 -4 -7 -13 -2 -21 4 -7 5 -41 2 -74 -3 -33 -3 -60 0 -60 3 0 5 -16 5 -35 0
-19 -2 -35 -5 -35 -3 0 -5 -22 -5 -50 0 -27 3 -50 6 -50 3 0 4 -11 1 -25 -3
-17 -10 -25 -21 -23 -9 2 -16 8 -17 13 0 12 -33 122 -45 150 -4 11 -24 63 -45
115 -36 94 -116 257 -154 315 -11 17 -23 37 -27 45 -15 34 -108 159 -168 229
-70 81 -230 231 -247 231 -4 0 -8 5 -8 10 0 6 -5 10 -11 10 -7 0 -19 8 -28 18
-9 9 -28 23 -43 31 -16 8 -28 18 -28 23 0 4 -6 8 -14 8 -7 0 -25 9 -38 20 -50
38 -336 170 -403 185 -11 2 -54 14 -95 25 -72 21 -88 24 -138 34 -13 3 -31 7
-40 10 -9 3 -37 7 -62 10 -25 3 -54 8 -65 10 -26 5 -145 17 -210 22 -67 5
-369 4 -425 -1 -25 -2 -70 -7 -100 -10 -30 -4 -73 -8 -95 -11 -22 -2 -51 -6
-65 -9 -14 -3 -52 -10 -85 -16 -104 -18 -283 -67 -355 -96 -8 -3 -23 -8 -33
-10 -10 -1 -37 -11 -60 -22 -23 -10 -71 -31 -107 -47 -36 -15 -67 -31 -70 -34
-3 -3 -37 -22 -76 -42 -101 -53 -222 -134 -324 -219 -14 -11 -62 -56 -107
-100 -45 -43 -84 -79 -87 -79 -6 0 12 48 58 152 9 20 16 40 16 45 1 4 9 26 20
48 11 22 19 48 20 58 0 9 4 17 9 17 7 0 16 27 22 68 0 4 4 12 9 17 13 16 73
176 67 181 -3 3 -352 5 -457 3 -8 -1 -44 -1 -80 0 -36 0 -72 0 -80 0 -8 -1
-71 -1 -140 0 -69 0 -132 0 -140 0 -25 -1 -470 0 -537 1 -64 1 -69 -3 -79 -57
-2 -10 -20 -70 -40 -133 -3 -8 -5 -17 -5 -20 -1 -3 -5 -10 -11 -17 -5 -7 -7
-17 -3 -23 3 -5 2 -10 -3 -10 -5 0 -9 -6 -9 -12 0 -7 -26 -94 -57 -193 -72
-225 -76 -238 -76 -247 0 -4 -9 -28 -20 -53 -11 -25 -19 -48 -19 -50 1 -7 -40
-142 -51 -170 -8 -19 -61 -188 -66 -210 -1 -5 -21 -68 -44 -140 -84 -262 -141
-440 -144 -450 -7 -26 -60 -198 -80 -260 -37 -112 -71 -218 -126 -395 -28 -91
-54 -172 -57 -180 -3 -8 -8 -22 -10 -30 -2 -8 -5 -22 -8 -30 -2 -8 -4 -16 -5
-17 -2 -2 -3 -6 -5 -10 -1 -5 -4 -15 -7 -23 -3 -8 -11 -34 -19 -58 -7 -23 -17
-41 -23 -39 -6 2 -16 23 -23 48 -7 24 -16 51 -20 59 -3 8 -7 17 -8 20 0 3 -9
30 -20 60 -10 30 -20 60 -21 65 -1 6 -32 98 -68 205 -37 107 -68 202 -70 210
-10 36 -127 386 -135 400 -5 9 -12 31 -16 50 -4 19 -10 40 -13 45 -4 6 -7 15
-9 20 -1 6 -22 71 -48 145 -25 74 -47 142 -50 150 -2 8 -13 42 -25 75 -11 33
-22 65 -24 70 -19 65 -50 162 -55 170 -3 6 -6 15 -7 20 -1 6 -23 71 -49 145
-25 74 -47 142 -49 150 -4 16 -43 134 -53 160 -3 8 -7 20 -9 25 -4 16 -95 289
-101 305 -3 8 -7 20 -9 25 -3 15 -34 107 -41 125 -8 19 -8 20 -17 53 -8 25
-12 27 -60 28 -28 1 -55 0 -61 -1 -5 -1 -66 -1 -135 0 -69 1 -136 1 -150 0
-14 -1 -29 -2 -35 -2 -5 0 -122 1 -260 1 -137 0 -275 1 -305 2 -30 1 -62 1
-70 1 -8 -1 -71 -1 -140 -1 -69 1 -132 1 -140 0 -22 -1 -221 -1 -228 1 -44 5
-42 -18 19 -157 5 -11 10 -27 11 -35 2 -8 6 -17 9 -20 7 -6 109 -266 116 -297
3 -13 1 -23 -5 -23 -5 0 -50 40 -99 88 -48 48 -122 113 -163 143 -85 63 -250
162 -250 151 0 -4 -4 -2 -8 4 -4 5 -23 17 -42 26 -104 47 -134 60 -150 63 -10
2 -32 11 -49 19 -17 9 -31 14 -31 12 0 -3 -17 2 -37 11 -21 8 -38 14 -38 13 0
-1 -20 4 -45 11 -69 19 -59 17 -140 34 -69 15 -83 17 -157 29 -67 11 -113 17
-178 21 -38 2 -70 5 -70 6 0 8 -396 11 -545 4 -219 -9 -412 -33 -650 -80 -27
-5 -132 -28 -140 -30 -9 -3 -65 -17 -195 -52 -249 -65 -264 -71 -271 -101 -4
-15 -9 -31 -13 -37 -3 -5 -6 -14 -7 -20 -1 -5 -39 -120 -84 -255 -45 -135 -83
-249 -85 -255 -1 -5 -5 -17 -8 -25 -14 -34 -138 -407 -143 -429 -3 -14 -7 -28
-9 -32 -8 -12 31 -52 53 -56 12 -1 61 16 109 39 48 23 91 41 96 40 4 -1 7 2 7
8 0 6 3 9 8 8 7 -1 18 3 87 32 76 32 150 59 250 91 55 17 107 33 115 37 8 3
20 6 25 7 6 2 51 12 100 24 50 12 106 24 125 27 19 3 42 7 50 11 8 3 33 7 55
9 22 2 58 6 80 9 22 4 63 8 90 11 28 2 70 6 95 9 64 7 332 8 415 1 106 -9 146
-16 275 -45 57 -13 187 -71 243 -108 127 -85 233 -242 263 -388 17 -84 24
-134 24 -168 0 -32 -3 -37 -17 -33 -10 3 -40 8 -68 11 -27 4 -61 8 -75 10 -14
2 -52 7 -85 10 -33 3 -76 8 -95 11 -175 22 -660 22 -830 -1 -19 -2 -62 -7 -95
-9 -33 -3 -71 -7 -85 -10 -14 -3 -47 -7 -75 -11 -27 -3 -59 -8 -70 -10 -11 -3
-31 -7 -45 -9 -14 -2 -77 -16 -141 -30 -302 -68 -531 -168 -769 -336 -68 -49
-227 -216 -280 -297 -30 -46 -62 -83 -70 -83 -13 0 -15 217 -15 1956 0 1075
-2 1957 -6 1960 -5 3 -407 4 -754 3 -60 0 -472 0 -485 0 -99 3 -243 0 -250 -4
-4 -3 -8 -301 -8 -662 -1 -362 -1 -670 -1 -684 -1 -47 -29 -29 -48 30 -9 31
-17 58 -17 61 -1 3 -4 10 -7 15 -4 6 -12 28 -19 50 -11 36 -75 170 -111 235
-24 43 -115 173 -145 209 -72 83 -228 231 -245 231 -5 0 -9 4 -9 8 0 28 -452
282 -502 282 -8 0 -18 3 -22 7 -11 11 -197 72 -288 94 -86 20 -124 30 -148 35
-14 2 -32 7 -40 9 -8 2 -28 6 -45 9 -16 3 -46 7 -65 10 -19 3 -44 8 -56 10
-11 2 -45 7 -75 10 -30 4 -70 9 -89 11 -35 6 -107 12 -210 20 -146 11 -497 16
-955 14 -22 0 -460 0 -485 0 -8 0 -197 0 -420 1 l-405 0 -5 -22 c-3 -13 -5
-359 -5 -770 1 -412 -2 -748 -5 -748 -4 0 -17 9 -29 20 -43 36 -175 155 -203
181 -16 15 -59 53 -95 85 -70 61 -153 136 -185 167 -10 9 -18 15 -18 13 0 -3
-17 12 -38 32 -21 20 -71 66 -112 102 -40 36 -81 72 -90 80 -8 8 -51 47 -95
85 -44 39 -91 81 -105 95 -14 14 -41 38 -60 54 -19 16 -69 59 -110 97 -41 37
-84 76 -96 86 -43 37 -168 149 -188 168 -121 115 -273 204 -411 240 -76 21
-86 22 -165 29 -79 8 -500 9 -507 2 -3 -2 -15 -1 -28 4 -13 5 -25 7 -27 5z
m4407 -1125 c3 5 18 5 33 1 15 -5 37 -4 50 0 12 5 22 5 22 1 0 -4 48 -7 108
-7 99 0 170 -6 232 -19 100 -22 132 -30 136 -38 3 -4 14 -8 24 -8 11 0 35 -9
55 -20 20 -11 42 -20 50 -20 8 0 15 -4 15 -9 0 -5 8 -11 18 -14 70 -23 210
-152 277 -257 59 -93 92 -179 121 -325 10 -51 12 -249 3 -273 -6 -17 -6 -21 3
-16 6 4 8 3 5 -3 -4 -6 -9 -28 -12 -49 -45 -303 -243 -538 -535 -638 -111 -38
-193 -54 -300 -61 -114 -7 -178 -7 -189 -1 -6 4 -11 4 -11 -1 0 -8 -300 -7
-308 2 -3 3 -6 1474 -3 1708 l1 48 60 -2 c33 -1 62 0 65 3 3 3 22 2 41 -2 19
-4 36 -4 39 0z m14515 -1244 c25 -4 52 -8 60 -10 85 -14 225 -75 295 -129 72
-55 175 -170 175 -195 0 -6 4 -12 9 -14 26 -10 105 -245 117 -348 3 -25 7 -58
10 -75 2 -16 4 -37 4 -45 -1 -8 -1 -31 -1 -50 l0 -35 -832 0 c-824 0 -832 0
-830 20 3 25 20 131 28 170 5 24 19 77 30 115 1 3 5 19 10 35 8 30 94 216 104
225 3 3 19 25 36 48 95 142 295 262 475 287 25 4 46 8 47 9 5 5 222 -1 263 -8z
m-7780 -1540 c41 -3 106 -8 143 -10 37 -3 71 -8 76 -10 4 -3 4 -31 0 -62 -4
-32 -8 -60 -7 -63 0 -3 -1 -8 -2 -11 -1 -3 -3 -13 -5 -24 -3 -14 -21 -88 -30
-126 -1 -3 -4 -12 -8 -20 -3 -8 -15 -42 -27 -74 -50 -141 -166 -320 -263 -406
-84 -74 -102 -89 -126 -102 -14 -7 -28 -16 -31 -20 -19 -26 -194 -87 -295
-104 -98 -17 -302 -4 -390 24 -45 14 -119 45 -125 51 -3 3 -17 13 -31 21 -37
21 -99 77 -99 90 0 5 -4 10 -9 10 -16 0 -68 102 -83 160 -30 118 -3 290 60
385 103 155 313 259 587 291 27 3 52 7 54 9 5 6 521 -2 611 -9z"/>
</g>
</svg>
