<svg xmlns="http://www.w3.org/2000/svg" xmlns:xlink="http://www.w3.org/1999/xlink" id="Layer_1" width="1000" height="325.634" x="0" y="0" enable-background="new 0 0 1000 325.634" version="1.1" viewBox="0 0 1000 325.634" xml:space="preserve"><g><path fill="none" d="M26.185,186.894l0.708-0.407c0.288,0.5,0.513,0.812,0.672,0.934c0.161,0.123,0.449,0.221,0.863,0.297 c0.415,0.075,1.449,0.195,3.102,0.359l5.722,0.587l2.142-3.745c0.177-0.32,0.476-0.928,0.898-1.822 c0.422-0.895,0.708-1.633,0.858-2.213c0.053-0.239,0.062-0.438,0.029-0.595c-0.033-0.156-0.243-0.571-0.629-1.243l0.622-0.357 l2.316,2.834c-0.03,0.378-0.126,0.772-0.291,1.18c-0.235,0.583-0.703,1.479-1.405,2.691l-2.089,3.599 c4.381,0.401,6.739,0.552,7.073,0.456l0.858-0.494c0.416,0.789,0.706,1.326,0.871,1.612c0.165,0.286,0.427,0.71,0.789,1.272 l-0.655,0.376c-0.279-0.437-0.469-0.704-0.566-0.8c-0.098-0.095-0.202-0.172-0.312-0.232c-0.16-0.08-0.458-0.16-0.894-0.241 c-0.437-0.082-1.303-0.197-2.597-0.349s-2.489-0.286-3.586-0.408l-1.54-0.181l-3.774,7.005c-0.493,0.911-0.798,1.553-0.917,1.925 c-0.06,0.177-0.071,0.34-0.032,0.489c0.039,0.15,0.189,0.462,0.454,0.938l-0.708,0.406c-0.419-0.795-0.708-1.329-0.863-1.6 c-0.172-0.301-0.493-0.825-0.962-1.573c0.397-0.799,0.802-1.559,1.214-2.281l3.193-5.586l-2.712-0.25 c-2.774-0.19-4.576-0.231-5.408-0.124l-0.785,0.423c-0.399-0.762-0.674-1.272-0.823-1.531 C26.921,188.074,26.643,187.624,26.185,186.894z"/><path fill="none" d="M41.537,209.728l-0.969,0.101c-0.593-0.315-1.004-0.559-1.238-0.729c-0.344-0.25-0.689-0.562-1.043-0.935 c-0.353-0.373-0.667-0.798-0.942-1.277c-0.543-0.944-0.837-1.911-0.884-2.902s0.198-1.924,0.736-2.799 c0.539-0.876,1.333-1.616,2.383-2.221c0.822-0.473,1.629-0.787,2.419-0.942c0.791-0.155,1.426-0.18,1.905-0.076 c0.348,0.076,0.796,0.247,1.343,0.512c0.547,0.265,1.03,0.563,1.448,0.894c0.561,0.429,1.031,0.972,1.409,1.63 c0.46,0.8,0.695,1.628,0.702,2.486c0.008,0.856-0.216,1.616-0.673,2.278c-0.456,0.662-1.082,1.221-1.875,1.678 c-0.2,0.115-0.454,0.237-0.76,0.366c-0.395-0.456-0.725-0.879-0.987-1.271c-0.501-0.737-0.973-1.492-1.417-2.263l-1.977-3.437 c-1.018,0.605-1.745,1.258-2.182,1.962c-0.441,0.706-0.638,1.442-0.597,2.213c0.042,0.769,0.249,1.476,0.62,2.119 c0.25,0.436,0.572,0.829,0.96,1.182c0.393,0.35,0.957,0.736,1.701,1.155L41.537,209.728z M41.965,200.334 c0.094,0.213,0.29,0.604,0.589,1.174c0.577,1.085,0.98,1.829,1.21,2.229c0.547,0.951,0.925,1.565,1.133,1.846 c0.175-0.092,0.31-0.165,0.402-0.218c1.13-0.649,1.827-1.355,2.093-2.118c0.266-0.761,0.179-1.524-0.261-2.29 c-0.464-0.807-1.128-1.291-1.992-1.452C44.279,199.347,43.22,199.623,41.965,200.334z"/><path fill="none" d="M42.998,216.394l1.233-1.309l2.744-2.905c0.794-0.838,1.553-1.663,2.277-2.474 c0.725-0.811,1.125-1.304,1.206-1.479c0.081-0.175,0.11-0.348,0.087-0.52s-0.166-0.544-0.428-1.117l0.611-0.352 c0.402,0.815,0.862,1.674,1.38,2.574c0.551,0.958,1.09,1.837,1.618,2.637l-0.611,0.352c-0.39-0.661-0.664-1.079-0.822-1.255 c-0.106-0.118-0.215-0.187-0.325-0.205c-0.111-0.017-0.216,0.003-0.316,0.061c-0.165,0.094-0.545,0.451-1.142,1.071l-2.881,2.982 c-0.484,0.498-0.997,1.057-1.533,1.68l2.333-0.257l4.433-0.452c1.05-0.107,2.095-0.242,3.134-0.402l0.302,0.525 c-1.036,1.224-1.715,2.042-2.039,2.456l-2.399,3.02c-0.801,1.022-1.404,1.792-1.808,2.309l2.575-0.412 c1.658-0.261,3.051-0.52,4.178-0.778c0.617-0.136,1.034-0.266,1.249-0.39c0.2-0.115,0.305-0.269,0.315-0.459 c0.009-0.191-0.206-0.685-0.644-1.478l0.611-0.352c0.575,1.116,0.981,1.881,1.22,2.296c0.289,0.501,0.705,1.167,1.249,1.998 l-0.611,0.352c-0.246-0.411-0.444-0.668-0.594-0.771c-0.149-0.104-0.334-0.165-0.554-0.181c-0.35-0.045-1.089-0.005-2.217,0.12 l-3.331,0.417l-1.48,0.209c-0.29,0.043-1.173,0.186-2.653,0.428c-0.632,0.097-1.168,0.206-1.612,0.328l-0.58-1.007l1.045-1.286 l4.738-5.98l-2.812,0.248l-3.388,0.337c-0.782,0.079-1.441,0.158-1.976,0.237l-1.19,0.213L42.998,216.394z"/><path fill="none" d="M56.361,227.929c1.603-0.922,3.203-1.165,4.801-0.729c1.599,0.436,2.856,1.451,3.773,3.045 c0.864,1.5,1.094,2.995,0.692,4.482c-0.402,1.487-1.35,2.66-2.846,3.52c-1.045,0.602-2.139,0.907-3.284,0.919 c-1.147,0.012-2.218-0.284-3.218-0.889c-1.001-0.604-1.807-1.438-2.419-2.504c-0.477-0.829-0.742-1.612-0.794-2.348 c-0.052-0.736,0.03-1.404,0.248-2.005c0.216-0.599,0.494-1.121,0.83-1.562C54.734,229.083,55.473,228.439,56.361,227.929z M58.321,229.498c-0.88,0.506-1.691,1.168-2.43,1.983c-0.741,0.817-1.16,1.622-1.26,2.416c-0.101,0.796,0.037,1.518,0.411,2.168 c0.477,0.829,1.205,1.334,2.183,1.513c0.98,0.178,2.153-0.126,3.519-0.911c1.14-0.655,2.026-1.387,2.662-2.194 c0.635-0.808,0.975-1.567,1.019-2.277c0.044-0.71-0.113-1.376-0.471-1.999c-0.505-0.879-1.234-1.409-2.186-1.59 C60.815,228.428,59.667,228.724,58.321,229.498z"/><path fill="none" d="M58.189,242.531l0.612-0.352c0.48,0.803,0.748,1.234,0.799,1.29c0.091,0.11,0.179,0.183,0.26,0.216 c0.082,0.035,0.176,0.047,0.283,0.034c0.206-0.023,0.488-0.129,0.846-0.315c1.93-1.062,2.937-1.619,3.022-1.668l1.276-0.734 c0.571-0.328,1.181-0.692,1.825-1.093c0.414-0.256,0.646-0.432,0.698-0.522c0.053-0.092,0.064-0.208,0.036-0.348 c-0.028-0.141-0.28-0.617-0.757-1.428l0.611-0.352c1.031,1.329,1.898,2.233,2.603,2.713c0.153,0.102,0.245,0.178,0.274,0.228 c0.028,0.051,0.033,0.1,0.014,0.149c-0.02,0.049-0.065,0.093-0.136,0.136c-0.05,0.027-0.109,0.058-0.178,0.087 c-0.457,0.215-1.145,0.582-2.063,1.102c0.557,0.108,1.096,0.193,1.617,0.255c0.521,0.062,0.87,0.123,1.046,0.183 c0.309,0.107,0.6,0.269,0.871,0.484c0.271,0.214,0.494,0.472,0.666,0.771c0.172,0.301,0.279,0.634,0.319,1.002l-0.113,0.151 c-1.013,0.438-1.884,0.859-2.614,1.26l-0.278-0.481c0.249-0.362,0.39-0.697,0.421-1.006s-0.047-0.627-0.236-0.956 c-0.317-0.551-0.813-0.889-1.489-1.013c-0.676-0.125-1.467,0.074-2.375,0.596l-1.105,0.636c-0.471,0.271-1.322,0.783-2.552,1.539 c-0.439,0.263-0.712,0.443-0.817,0.541c-0.105,0.099-0.171,0.186-0.198,0.264c-0.027,0.077-0.027,0.18-0.002,0.308 c0.059,0.253,0.329,0.867,0.807,1.848l-0.611,0.352c-0.673-1.286-1.265-2.373-1.775-3.26 C59.268,244.231,58.733,243.36,58.189,242.531z"/><path fill="none" d="M63.204,251.249l0.611-0.354l0.59,1.004c0.097,0.151,0.193,0.257,0.287,0.312 c0.094,0.057,0.189,0.084,0.285,0.086c0.188-0.003,0.468-0.104,0.842-0.298c0.097-0.047,1.135-0.61,3.117-1.693l4.447-2.558 c1.192-0.687,2.414-1.413,3.666-2.18c0.84-0.522,1.295-0.836,1.367-0.945c0.051-0.076,0.068-0.161,0.05-0.258 c-0.012-0.139-0.272-0.648-0.781-1.532l0.632-0.363c1.13,1.5,2.026,2.478,2.688,2.934c0.096,0.069,0.159,0.127,0.188,0.179 c0.028,0.049,0.035,0.098,0.02,0.146c-0.016,0.047-0.052,0.087-0.109,0.119c-0.05,0.029-0.125,0.063-0.227,0.103l-0.359,0.192 c-1.299,0.7-2.401,1.305-3.306,1.815l-1.684,0.94l-5.561,3.198c-1.84,1.098-2.833,1.692-2.979,1.785 c-0.354,0.213-0.589,0.406-0.708,0.578c-0.048,0.067-0.079,0.141-0.091,0.227c-0.014,0.085,0,0.193,0.037,0.324 c0.021,0.055,0.241,0.46,0.656,1.216l-0.611,0.352c-0.509-1.001-0.975-1.87-1.398-2.606 C64.467,253.271,63.912,252.362,63.204,251.249z"/><path fill="none" d="M73.684,265.612l-0.97,0.101c-0.593-0.315-1.004-0.559-1.238-0.729c-0.343-0.25-0.689-0.562-1.043-0.936 c-0.352-0.371-0.666-0.797-0.941-1.276c-0.542-0.943-0.838-1.91-0.885-2.901c-0.047-0.992,0.2-1.925,0.737-2.8 c0.539-0.876,1.333-1.616,2.384-2.221c0.822-0.473,1.628-0.786,2.419-0.941s1.426-0.181,1.904-0.075 c0.349,0.075,0.796,0.246,1.344,0.512c0.547,0.265,1.03,0.562,1.448,0.894c0.561,0.429,1.03,0.973,1.409,1.63 c0.46,0.8,0.694,1.628,0.702,2.486c0.007,0.855-0.217,1.614-0.673,2.277c-0.457,0.661-1.081,1.221-1.875,1.677 c-0.2,0.116-0.454,0.237-0.76,0.366c-0.396-0.457-0.725-0.879-0.987-1.271c-0.5-0.736-0.973-1.493-1.416-2.262l-1.977-3.438 c-1.018,0.604-1.745,1.258-2.183,1.962c-0.441,0.705-0.638,1.441-0.597,2.212c0.043,0.771,0.25,1.478,0.62,2.119 c0.25,0.437,0.571,0.829,0.96,1.183c0.392,0.35,0.957,0.735,1.701,1.154L73.684,265.612z M74.112,256.219 c0.093,0.213,0.29,0.604,0.589,1.174c0.577,1.086,0.98,1.828,1.211,2.229c0.547,0.951,0.925,1.566,1.133,1.846 c0.176-0.092,0.31-0.164,0.402-0.218c1.13-0.649,1.827-1.355,2.094-2.117c0.265-0.761,0.178-1.524-0.262-2.29 c-0.464-0.808-1.128-1.291-1.991-1.451C76.426,255.23,75.366,255.506,74.112,256.219z"/><path fill="none" d="M73.375,269.028c0.95-0.433,1.545-0.712,1.785-0.841c1.573-0.848,2.496-1.351,2.768-1.507l4.768-2.741 c1.194-0.688,2.414-1.414,3.666-2.182c0.841-0.521,1.297-0.836,1.368-0.943c0.051-0.077,0.068-0.162,0.051-0.26 c-0.013-0.137-0.273-0.646-0.782-1.531l0.632-0.364c1.13,1.501,2.025,2.479,2.687,2.935c0.097,0.069,0.16,0.128,0.188,0.178 c0.029,0.05,0.036,0.1,0.02,0.146s-0.052,0.087-0.11,0.119c-0.049,0.029-0.125,0.063-0.226,0.102l-0.36,0.193 c-1.298,0.698-2.398,1.304-3.302,1.814l-1.682,0.939l-2.121,1.219l2.298,0.647c0.275,0.098,0.62,0.323,1.032,0.677 c0.412,0.353,0.762,0.779,1.05,1.279c0.453,0.786,0.669,1.59,0.651,2.408c-0.019,0.819-0.271,1.585-0.755,2.297 c-0.485,0.712-1.134,1.303-1.95,1.771c-0.629,0.362-1.279,0.612-1.951,0.751c-0.671,0.14-1.313,0.191-1.925,0.152 c-0.459-0.021-0.793-0.073-1.001-0.153l-2.026-0.917c-0.838-0.364-1.426-0.688-1.763-0.97c-0.338-0.282-0.667-0.701-0.988-1.258 c-0.275-0.479-0.466-0.959-0.572-1.441c-0.105-0.48-0.129-1.042-0.07-1.685l-1.315-0.4L73.375,269.028z M81.438,267.046 l-4.021,2.312c-0.356,0.206-0.574,0.357-0.651,0.453c-0.078,0.098-0.141,0.294-0.19,0.588c-0.078,0.445-0.077,0.907,0,1.392 c0.079,0.483,0.245,0.946,0.5,1.389c0.596,1.037,1.455,1.604,2.577,1.7c1.121,0.099,2.271-0.193,3.45-0.871 c0.836-0.481,1.461-1.017,1.874-1.605c0.413-0.591,0.626-1.198,0.641-1.824c0.016-0.628-0.144-1.23-0.477-1.81 c-0.391-0.68-0.935-1.175-1.633-1.487C82.81,266.971,82.12,266.891,81.438,267.046z"/><path fill="none" d="M88.706,275.165l0.611-0.351c0.955,1.295,1.925,2.288,2.911,2.976l-0.036,0.336 c-1.555,0.818-2.737,1.46-3.545,1.925l-1.951,1.121c-1.837,1.105-2.83,1.705-2.976,1.799c-0.353,0.213-0.591,0.401-0.714,0.567 c-0.044,0.073-0.072,0.15-0.086,0.235c-0.014,0.084-0.001,0.191,0.036,0.322c0.017,0.047,0.235,0.449,0.652,1.208l-0.611,0.353 c-0.574-1.116-1.049-1.999-1.423-2.649c-0.33-0.572-0.893-1.493-1.692-2.767l0.611-0.352l0.601,1.021 c0.093,0.146,0.188,0.248,0.282,0.304c0.094,0.056,0.189,0.084,0.286,0.088c0.188-0.004,0.471-0.1,0.848-0.288 c0.093-0.054,1.128-0.625,3.107-1.717l1.888-1.085c1.065-0.613,1.677-1.013,1.836-1.199c0.082-0.104,0.119-0.228,0.108-0.369 C89.439,276.502,89.191,276.008,88.706,275.165z M96.483,274.172c0.193,0.338,0.239,0.689,0.136,1.058 c-0.102,0.368-0.321,0.648-0.657,0.841c-0.329,0.189-0.678,0.235-1.05,0.135c-0.372-0.101-0.652-0.316-0.841-0.645 c-0.193-0.336-0.24-0.689-0.14-1.061c0.101-0.372,0.315-0.652,0.644-0.842c0.336-0.192,0.69-0.239,1.062-0.14 C96.008,273.619,96.29,273.838,96.483,274.172z"/></g><g id="F"><polygon fill="#C9AD2E" points="70.702 143.09 84.606 151.036 105.43 185.545 91.526 177.601"/><polygon fill="#D1B935" points="65.027 196.228 91.526 177.601 105.43 185.545 78.93 204.173"/><polygon fill="#C9AD2E" points="65.027 196.228 78.93 204.173 83.531 211.907 77.135 216.295"/><polygon fill="#C9AD2E" points="124.939 249.3 111.939 242.703 90.385 206.98 104.289 214.926"/><polygon fill="#D1B935" points="124.939 249.3 111.649 258.641 98.65 252.044 111.939 242.703"/><polygon fill="#C9AD2E" points="128.083 286.376 115.208 280.131 98.65 252.044 111.649 258.641"/><polygon fill="#D1B935" points="128.083 286.376 92.999 311.043 80.123 304.797 115.208 280.131"/><polygon fill="#D1B935" points="70.453 288.119 65.495 291.604 50.91 285.606 63.758 276.573"/><linearGradient id="SVGID_1_" x1="10.783" x2="115.208" y1="223.943" y2="223.943" gradientUnits="userSpaceOnUse"><stop offset="0" stop-color="#F5ED60"/><stop offset="1" stop-color="#F7EF74"/></linearGradient><path fill="url(#SVGID_1_)" d="M80.123,304.797l-16.364-28.224l-12.849,9.033l-20.957-36.142l12.85-9.032l-32.02-55.22 l59.919-42.123l20.824,34.51l-26.499,18.627l12.108,20.067l13.25-9.315l21.554,35.723l-13.289,9.341l16.558,28.087L80.123,304.797z"/><g><linearGradient id="SVGID_2_" x1="35.401" x2="102.353" y1="169.727" y2="285.69" gradientUnits="userSpaceOnUse"><stop offset="0" stop-color="#68120C"/><stop offset="1" stop-color="#D83020"/></linearGradient><polygon fill="url(#SVGID_2_)" points="17.361 186.658 69.201 150.215 84.881 176.201 58.383 194.829 75.634 223.421 88.884 214.105 105.294 241.304 92.045 250.617 108.603 278.703 81.701 297.615 65.336 269.394 52.487 278.428 36.531 250.911 49.38 241.878"/></g><g><linearGradient id="SVGID_3_" x1="35.671" x2="102.076" y1="170.203" y2="285.22" gradientUnits="userSpaceOnUse"><stop offset="0" stop-color="#771915"/><stop offset="1" stop-color="#EE3524"/></linearGradient><polygon fill="url(#SVGID_3_)" points="65.495 268.671 52.646 277.705 37.193 251.057 50.043 242.023 18.023 186.804 69.05 150.932 84.212 176.06 57.714 194.688 75.483 224.138 88.733 214.823 104.625 241.163 91.38 250.474 107.938 278.56 81.859 296.893"/></g></g><g id="U_1_"><linearGradient id="SVGID_4_" x1="148.044" x2="246.368" y1="158.686" y2="158.686" gradientUnits="userSpaceOnUse"><stop offset="0" stop-color="#C9AD2E"/><stop offset=".5" stop-color="#D1B935"/><stop offset="1" stop-color="#C9AD2E"/></linearGradient><path fill="url(#SVGID_4_)" d="M190.402,241.771c-28.459,0-41.152-28.868-42.358-31.777c0,0,38.222,16.38,66.436-5.984 c20.988-16.638-30.82-102.608-30.82-102.608l8.615-25.802l9.468,9.912l37.74,73.494c1.351,2.713,23.826,47.24-20.512,73.803 C209.043,238.756,199.433,241.771,190.402,241.771z"/><polygon fill="#C9AD2E" points="134.787 107.838 146.498 115.803 185.269 193.063 172.859 190.539 172.303 183.08"/><linearGradient id="SVGID_5_" x1="142.711" x2="212.436" y1="102.661" y2="223.429" gradientUnits="userSpaceOnUse"><stop offset="0" stop-color="#F5ED60"/><stop offset="1" stop-color="#F7EF74"/></linearGradient><path fill="url(#SVGID_5_)" d="M179.085,234.819c-29.034,0-41.984-28.867-43.214-31.776l-37.354-74.866l36.27-20.339l37.842,75.897 c0.096,0.241,2.748,6.718,8.787,6.718c2.358,0,5.088-0.908,8.115-2.699c3.132-1.852,4.937-3.99,5.517-6.533 c1.037-4.537-2.033-9.219-2.064-9.266l-0.328-0.564l-37.431-75.016l37.049-20.775l37.645,75.444 c1.377,2.712,23.544,48.249-21.689,74.812C198.103,231.804,188.297,234.819,179.085,234.819z"/><linearGradient id="SVGID_6_" x1="145.097" x2="209.828" y1="107.085" y2="219.203" gradientUnits="userSpaceOnUse"><stop offset="0" stop-color="#68120C"/><stop offset="1" stop-color="#EE3524"/><stop offset="1" stop-color="#C73023"/></linearGradient><path fill="url(#SVGID_6_)" d="M105.073,130.193l27.597-15.476l35.317,70.783c0,0,6.444,16.956,24.072,6.528 c14.728-8.712,5.039-22.854,5.039-22.854l-35.317-70.781l28.376-15.913l35.317,70.782c0,0,23.063,43.165-19.759,68.312 c-45.934,26.974-65.327-20.599-65.327-20.599L105.073,130.193z"/><g><linearGradient id="SVGID_7_" x1="145.346" x2="209.574" y1="107.525" y2="218.771" gradientUnits="userSpaceOnUse"><stop offset="0" stop-color="#771915"/><stop offset="1" stop-color="#EE3524"/><stop offset="1" stop-color="#DB3628"/></linearGradient><path fill="url(#SVGID_7_)" d="M179.085,229.354c-26.274,0-38.117-28.281-38.233-28.567l-35.119-70.391l26.724-14.986 l35.083,70.313c0.019,0.057,3.987,10.195,13.876,10.195c3.35,0,7.017-1.165,10.898-3.46c4.463-2.64,7.183-6.04,8.083-10.107 c1.53-6.908-2.705-13.195-2.886-13.459l-35.069-70.295l27.503-15.423l35.083,70.312c0.063,0.12,5.731,10.889,6.127,24.553 c0.364,12.568-3.798,30.248-25.693,43.105C196.186,226.591,187.311,229.354,179.085,229.354z"/></g></g><g id="T"><polygon fill="#C9AD2E" points="318.838 27.769 325.159 39.05 337.101 77.981 330.781 66.699"/><polygon fill="#D1B935" points="299.484 77.222 330.781 66.699 337.101 77.981 306.436 88.28"/><polygon fill="#C9AD2E" points="328.418 171.544 334.577 180.111 306.436 88.28 299.484 77.222"/><polygon fill="#D1B935" points="288.085 185.102 294.244 193.669 334.577 180.111 328.418 171.544"/><polygon fill="#D1B935" points="228.1 101.216 237.372 111.496 262.876 102.924 259.15 90.78"/><linearGradient id="SVGID_8_" x1="266.715" x2="312.247" y1="44.876" y2="177.111" gradientUnits="userSpaceOnUse"><stop offset="0" stop-color="#F5ED60"/><stop offset="1" stop-color="#F7EF74"/></linearGradient><path fill="url(#SVGID_8_)" d="M288.085,185.102L259.15,90.78l-31.05,10.437l-11.943-38.931l102.681-34.517l11.942,38.931 l-31.297,10.522l28.934,94.322L288.085,185.102z"/><linearGradient id="SVGID_9_" x1="268.343" x2="310.619" y1="49.738" y2="172.517" gradientUnits="userSpaceOnUse"><stop offset="0" stop-color="#68120C"/><stop offset="1" stop-color="#D83020"/></linearGradient><polygon fill="url(#SVGID_9_)" points="222.323 65.585 315.586 34.234 324.616 63.667 293.318 74.189 322.252 168.512 291.337 178.905 262.402 84.583 231.352 95.019"/><g><linearGradient id="SVGID_10_" x1="268.506" x2="310.455" y1="50.081" y2="171.908" gradientUnits="userSpaceOnUse"><stop offset="0" stop-color="#771915"/><stop offset="1" stop-color="#EE3524"/></linearGradient><polygon fill="url(#SVGID_10_)" points="262.73 83.81 231.679 94.248 222.943 65.77 315.259 34.738 323.995 63.215 292.697 73.737 321.632 168.06 291.665 178.133"/></g></g><g id="U"><polygon fill="#C9AD2E" points="386.693 19.624 390.376 28.562 399.629 117.293 395.244 109.265 395.771 104.108"/><linearGradient id="SVGID_11_" x1="360.553" x2="463.387" y1="131.04" y2="131.04" gradientUnits="userSpaceOnUse"><stop offset="0" stop-color="#C9AD2E"/><stop offset=".5" stop-color="#D1B935"/><stop offset="1" stop-color="#C9AD2E"/></linearGradient><path fill="url(#SVGID_11_)" d="M407.778,166.513c-31.008,0-42.749-21.173-47.143-35.499c-1.998-6.513,32.741,20.391,56.375,16.5 c32.6-5.365,45.098-51.947,45.098-51.947l0.942,8.938c0.227,1.841,2.987,27-12.217,44.908 C441.2,160.759,426.714,166.513,407.778,166.513z"/><linearGradient id="SVGID_12_" x1="398.2" x2="415.294" y1="17.788" y2="157.005" gradientUnits="userSpaceOnUse"><stop offset="0" stop-color="#F5ED60"/><stop offset="1" stop-color="#F7EF74"/></linearGradient><path fill="url(#SVGID_12_)" d="M405.093,157.575c-46.532,0-51.003-44.809-51.269-48.157l-9.066-84.388l41.936-5.406l9.077,84.485 c0.25,1.423,2.273,10.95,11.557,10.95c4.667,0,7.996-1.159,9.894-3.444c3.201-3.857,2.066-10.159,2.055-10.223l-0.062-0.414 l-9.066-84.384l42.882-5.536l9.08,84.51c0.234,1.842,3.082,27-12.603,44.908C439.568,151.821,424.625,157.575,405.093,157.575z"/><linearGradient id="SVGID_13_" x1="398.764" x2="414.643" y1="22.754" y2="152.08" gradientUnits="userSpaceOnUse"><stop offset="0" stop-color="#68120C"/><stop offset="1" stop-color="#D83020"/></linearGradient><path fill="url(#SVGID_13_)" d="M350.214,29.333l32.083-4.135l8.551,79.582c0,0,2.327,15.245,16.479,15.245 c20.732,0,16.823-19.578,16.823-19.578l-8.547-79.551l33.03-4.265l8.543,79.519c0,0,7.506,56.458-52.084,56.458 c-43.948,0-46.324-43.655-46.324-43.655L350.214,29.333z"/><g><linearGradient id="SVGID_14_" x1="398.973" x2="414.73" y1="23.254" y2="151.584" gradientUnits="userSpaceOnUse"><stop offset="0" stop-color="#771915"/><stop offset="1" stop-color="#EE3524"/></linearGradient><path fill="url(#SVGID_14_)" d="M405.241,152.108c-42.978,0-45.801-42.75-45.825-43.182l-8.505-79.16l31.092-4.007l8.497,79.074 c0.027,0.179,2.56,15.691,16.976,15.691c6.406,0,11.167-1.844,14.149-5.48c4.849-5.913,3.236-14.339,3.165-14.695l-8.489-79.02 l32.039-4.136l8.489,79.01c0.033,0.254,3.033,24.329-11.291,40.677C436.683,146.985,423.125,152.108,405.241,152.108z"/></g></g><g id="R"><linearGradient id="SVGID_15_" x1="583.902" x2="583.902" y1="64.283" y2="123.066" gradientUnits="userSpaceOnUse"><stop offset="0" stop-color="#C9AD2E"/><stop offset="1" stop-color="#D1B935"/></linearGradient><path fill="url(#SVGID_15_)" d="M601.056,64.283c0,0,1.595,19.355-9.431,37.304c-8.695,14.154-21.729,21.479-21.729,21.479 l-3.228-7.697c0,0,18.248-13.16,23.338-22.719C595.097,83.091,601.056,64.283,601.056,64.283z"/><linearGradient id="SVGID_16_" x1="530.411" x2="563.827" y1="60.144" y2="60.144" gradientUnits="userSpaceOnUse"><stop offset="0" stop-color="#D1B935"/><stop offset="1" stop-color="#C9AD2E"/></linearGradient><path fill="url(#SVGID_16_)" d="M530.91,46.942l8.01,0.042c0,0,18.643-1.261,23.422,10.035c3.77,8.909-0.826,16.327-0.826,16.327 s-0.061-5.421-4.28-9.521c-6.707-6.517-19.33-5.875-19.33-5.875h-7.494L530.91,46.942z"/><polygon fill="#D1B935" points="540.815 151.404 584.088 152.608 582.21 161.501 538.938 160.297"/><polygon fill="#C9AD2E" points="532.787 133.823 540.815 151.404 538.938 160.297 532.267 145.721"/><polygon fill="#D1B935" points="532.027 151.16 532.135 160.053 488.74 158.843 488.632 149.951"/><polygon fill="#D1B935" points="472.992 115.615 490.115 116.091 489.641 126.927 474.094 126.494"/><linearGradient id="SVGID_17_" x1="537.198" x2="537.198" y1="10" y2="152.608" gradientUnits="userSpaceOnUse"><stop offset="0" stop-color="#F5ED60"/><stop offset="1" stop-color="#F7EF74"/></linearGradient><path fill="url(#SVGID_17_)" d="M584.088,152.608l-43.272-1.204l-8.028-17.581l-0.76,17.336l-43.396-1.209l1.483-33.86 l-17.123-0.476l1.818-41.5l17.124,0.477L494.764,10l72.414,1.894l1.019,0.531c1.356,0.707,33.208,17.704,33.208,51.486 c0,30.502-23.369,46.659-33.508,52.234L584.088,152.608z M543.677,80.896c0.001,0,0.562,0.049,1.475,0.049 c2.495,0,7.288-0.354,11.331-2.721c4.666-2.732,6.936-7.415,6.936-14.313c0-14.988-15.496-16.294-22.372-16.606 c-0.642-0.029-9.905-0.166-9.905-0.166l-1.46,33.354L543.677,80.896L543.677,80.896z"/><linearGradient id="SVGID_18_" x1="537.307" x2="537.307" y1="15.092" y2="147.425" gradientUnits="userSpaceOnUse"><stop offset="0" stop-color="#68120C"/><stop offset="1" stop-color="#D83020"/></linearGradient><path fill="url(#SVGID_18_)" d="M499.512,15.092l66.388,1.736c0,0,30.538,15.922,30.538,47.083 c0,35.256-35.008,49.906-35.008,49.906l14.923,33.608l-32.307-0.899l-15.319-33.54l-1.448,33.073l-33.465-0.931l1.484-33.86 l-17.124-0.477l1.383-31.577l17.124,0.477L499.512,15.092z M524.498,85.316l18.684,0.521c0,0,25.201,2.53,25.201-21.926 c0-21.85-28.74-21.539-28.74-21.539l-13.25-0.311L524.498,85.316z"/><g><linearGradient id="SVGID_19_" x1="537.318" x2="537.318" y1="15.65" y2="146.949" gradientUnits="userSpaceOnUse"><stop offset="0" stop-color="#771915"/><stop offset="1" stop-color="#EE3524"/></linearGradient><path fill="url(#SVGID_19_)" d="M544.373,146.081l-15.189-33.256l-0.955,0.186l-1.426,32.581l-32.466-0.904l1.484-33.86 l-17.124-0.476l1.339-30.577l17.124,0.477l2.83-64.601l65.778,1.721c1.912,1.042,30.171,16.979,30.171,46.586 c0,34.525-34.353,49.3-34.7,49.445l-0.471,0.197l14.808,33.351L544.373,146.081z M523.978,85.848l19.191,0.535 c-0.005,0,0.744,0.074,1.981,0.074h0.001c3.051,0,8.937-0.451,14.092-3.469c6.396-3.746,9.64-10.149,9.64-19.031 c0-21.79-27.965-22.04-29.155-22.04l-13.812-0.32L523.978,85.848z"/></g></g><g id="A"><polygon fill="#D1B935" points="604.562 154.81 646.315 165.548 641.35 174.486 600.379 163.949"/><polygon fill="#D1B935" points="653.314 155.147 648.166 162.796 652.049 184.578 657.015 175.639"/><polygon fill="#D1B935" points="666.22 180.886 671.186 171.948 713.839 182.913 706.061 191.128"/><polygon fill="#CCAF2F" points="670.535 160.247 671.186 171.948 666.22 180.886 665.736 167.261 652.049 184.578 657.015 175.639"/><polygon fill="#CCAF2F" points="672.382 116.303 673.546 133.66 667.872 132.202 667.31 123.963"/><linearGradient id="SVGID_20_" x1="685.027" x2="657.975" y1="22.385" y2="175.808" gradientUnits="userSpaceOnUse"><stop offset="0" stop-color="#F5ED60"/><stop offset="1" stop-color="#F7EF74"/></linearGradient><path fill="url(#SVGID_20_)" d="M713.839,182.913l-42.653-10.965l-0.65-11.701l-13.521,15.392l-3.7-20.492l-6.999,10.401 l-41.754-10.739l91.165-130.538L713.839,182.913z M662.729,130.881l10.816,2.779l-1.164-17.357L662.729,130.881z"/><linearGradient id="SVGID_21_" x1="682.946" x2="659.75" y1="36.232" y2="167.784" gradientUnits="userSpaceOnUse"><stop offset="0" stop-color="#68120C"/><stop offset="1" stop-color="#D83020"/></linearGradient><path fill="url(#SVGID_21_)" d="M612.732,151.784L692.28,37.878l15.806,138.429l-32.145-8.264l-1.123-20.199l-14.744,16.788 l-4.046-22.41l-11.874,17.643L612.732,151.784z M678.961,140.178l-2.608-38.867l-21.613,32.645L678.961,140.178z"/><g><linearGradient id="SVGID_22_" x1="682.735" x2="659.88" y1="37.626" y2="167.245" gradientUnits="userSpaceOnUse"><stop offset="0" stop-color="#771915"/><stop offset="1" stop-color="#EE3524"/></linearGradient><path fill="url(#SVGID_22_)" d="M676.42,167.65l-1.17-21.055l-14.868,16.928l-4.08-22.603l-12.365,18.372l-30.382-7.813 l78.379-112.231l15.573,136.394L676.42,167.65z M653.935,134.265l25.571,6.569l-2.754-41.033L653.935,134.265z"/></g></g><g id="M"><polygon fill="#D1B935" points="862.227 240.924 850.307 248.008 811.855 231.797 823.773 224.713"/><polygon fill="#C9AD2E" points="822.424 197.179 834.821 187.445 823.773 224.713 811.855 231.797"/><polygon fill="#C9AD2E" points="785.639 225.547 795.853 218.043 788.412 167.469 779.758 185.583"/><polygon fill="#D1B935" points="771.576 202.708 761.361 210.212 723.4 194.512 731.981 186.015"/><polygon fill="#C9AD2E" points="796.102 62.477 804.681 53.98 731.981 186.015 723.4 194.512"/><linearGradient id="SVGID_23_" x1="849.249" x2="795.487" y1="70.202" y2="217.911" gradientUnits="userSpaceOnUse"><stop offset="0" stop-color="#F5ED60"/><stop offset="1" stop-color="#F7EF74"/></linearGradient><polygon fill="url(#SVGID_23_)" points="788.412 167.469 771.576 202.708 731.981 186.015 804.681 53.98 822.233 149.494 899.189 94.06 862.227 240.924 823.773 224.713 834.821 187.445 795.853 218.043"/><linearGradient id="SVGID_24_" x1="843.821" x2="797.232" y1="83.887" y2="211.89" gradientUnits="userSpaceOnUse"><stop offset="0" stop-color="#68120C"/><stop offset="1" stop-color="#D83020"/></linearGradient><polygon fill="url(#SVGID_24_)" points="768.575 196.291 738.426 183.581 801.751 68.574 818.203 158.111 890.488 106.041 858.258 234.101 829.233 221.864 843.446 173.915 798.956 208.849 790.391 150.63"/><g><linearGradient id="SVGID_25_" x1="843.488" x2="797.58" y1="85.266" y2="211.397" gradientUnits="userSpaceOnUse"><stop offset="0" stop-color="#771915"/><stop offset="1" stop-color="#EE3524"/></linearGradient><polygon fill="url(#SVGID_25_)" points="829.994 221.577 844.527 172.553 799.48 207.923 790.801 148.935 768.485 195.645 739.288 183.336 801.667 70.044 818.009 158.979 889.824 107.248 858.07 233.414"/></g></g><g id="A_1_"><polygon fill="#C9AD2E" points="873.438 251.812 860.891 258.57 976.034 156.647 989.938 149.293"/><polygon fill="#D1B935" points="909.617 274.397 873.438 251.812 860.891 258.57 895.713 280.356"/><polygon fill="#C9AD2E" points="918.62 265.733 917.729 286.582 903.824 292.54 904.199 276.718 909.617 274.397"/><polygon fill="#C9AD2E" points="933.418 275.704 931.389 287.995 917.484 293.953 917.729 286.582"/><polygon fill="#D1B935" points="952.208 315.634 917.484 293.953 931.389 287.995 966.995 310.226"/><polygon fill="#C9AD2E" points="933.279 245.094 945.773 233.184 942.558 250.894"/><linearGradient id="SVGID_26_" x1="994.686" x2="917.185" y1="152.033" y2="286.267" gradientUnits="userSpaceOnUse"><stop offset="0" stop-color="#F5ED60"/><stop offset="1" stop-color="#F7EF74"/></linearGradient><path fill="url(#SVGID_26_)" d="M966.995,310.226l-35.606-22.23l2.029-12.291l-15.689,10.878l0.892-20.849l-9.003,8.664 l-36.18-22.586l116.501-102.519L966.995,310.226z M933.279,245.094l9.278,5.8l3.216-17.71L933.279,245.094z"/><linearGradient id="SVGID_27_" x1="987.258" x2="921.614" y1="164.29" y2="277.989" gradientUnits="userSpaceOnUse"><stop offset="0" stop-color="#68120C"/><stop offset="1" stop-color="#D83020"/></linearGradient><path fill="url(#SVGID_27_)" d="M881.728,251.131l101.396-89.228l-19.968,140.07l-26.329-16.438l3.399-20.595l-17.109,11.861 l0.994-23.244l-15.146,14.577L881.728,251.131z M946.136,258.987l7.249-39.918l-28.161,26.845L946.136,258.987z"/><g><linearGradient id="SVGID_28_" x1="986.51" x2="921.85" y1="165.523" y2="277.517" gradientUnits="userSpaceOnUse"><stop offset="0" stop-color="#771915"/><stop offset="1" stop-color="#EE3524"/></linearGradient><path fill="url(#SVGID_28_)" d="M937.375,285.288l3.537-21.432l-17.252,11.961l1.004-23.485l-15.765,15.172l-26.337-16.441 l99.875-87.89l-19.668,137.97L937.375,285.288z M924.412,245.997l22.084,13.805l7.655-42.154L924.412,245.997z"/></g></g></svg>