<?xml version="1.0" encoding="UTF-8" standalone="no"?>
<!-- Created with Inkscape (http://www.inkscape.org/) -->

<svg
   xmlns:dc="http://purl.org/dc/elements/1.1/"
   xmlns:cc="http://creativecommons.org/ns#"
   xmlns:rdf="http://www.w3.org/1999/02/22-rdf-syntax-ns#"
   xmlns:svg="http://www.w3.org/2000/svg"
   xmlns="http://www.w3.org/2000/svg"
   xmlns:sodipodi="http://sodipodi.sourceforge.net/DTD/sodipodi-0.dtd"
   xmlns:inkscape="http://www.inkscape.org/namespaces/inkscape"
   width="1000"
   height="272.49176"
   viewBox="0 0 937.5 255.46103"
   id="svg2"
   version="1.1"
   inkscape:version="0.92.1 r15371"
   sodipodi:docname="Mindhunter_Logo.svg">
  <title
     id="title4283">Mindhunter</title>
  <defs
     id="defs4" />
  <sodipodi:namedview
     id="base"
     pagecolor="#ffffff"
     bordercolor="#666666"
     borderopacity="1.0"
     inkscape:pageopacity="0.0"
     inkscape:pageshadow="2"
     inkscape:zoom="0.5305195"
     inkscape:cx="440.04673"
     inkscape:cy="168.94361"
     inkscape:document-units="px"
     inkscape:current-layer="layer1"
     showgrid="false"
     inkscape:window-width="1366"
     inkscape:window-height="705"
     inkscape:window-x="-8"
     inkscape:window-y="-8"
     inkscape:window-maximized="1"
     inkscape:showpageshadow="false"
     units="px"
     fit-margin-top="0"
     fit-margin-left="0"
     fit-margin-right="0"
     fit-margin-bottom="0"
     showguides="false" />
  <metadata
     id="metadata7">
    <rdf:RDF>
      <cc:Work
         rdf:about="">
        <dc:format>image/svg+xml</dc:format>
        <dc:type
           rdf:resource="http://purl.org/dc/dcmitype/StillImage" />
        <dc:title>Mindhunter</dc:title>
      </cc:Work>
    </rdf:RDF>
  </metadata>
  <g
     inkscape:label="Capa 1"
     inkscape:groupmode="layer"
     id="layer1"
     style="display:inline"
     transform="translate(775.26691,-502.72767)">
    <path
       id="rect4147"
       style="color:#000000;clip-rule:nonzero;display:inline;overflow:visible;visibility:visible;opacity:1;isolation:auto;mix-blend-mode:normal;color-interpolation:sRGB;color-interpolation-filters:linearRGB;solid-color:#000000;solid-opacity:1;fill:#000000;fill-opacity:1;fill-rule:evenodd;stroke:none;stroke-width:1.67970419;stroke-linecap:round;stroke-linejoin:round;stroke-miterlimit:4;stroke-dasharray:none;stroke-dashoffset:0;stroke-opacity:1;color-rendering:auto;image-rendering:auto;shape-rendering:auto;text-rendering:auto;enable-background:accumulate"
       d="m -718.00546,559.98913 v 140.9382 h 5.76681 V 584.84381 c 0,-5.47804 -0.3783,-16.42951 -0.3783,-16.42951 l 24.5548,132.51303 h 7.11035 l 24.55532,-132.51303 c 0,0 -0.37882,10.95147 -0.37882,16.42951 v 116.08352 h 5.76732 v -140.9382 h -9.69182 l -23.80589,128.46959 -23.80794,-128.46959 z m 106.39323,0 v 140.9382 h 11.97753 v -140.9382 z m 53.6431,0 v 140.9382 h 16.03121 v -96.34515 l 23.36659,96.34515 h 16.80268 v -140.9382 h -16.03121 v 93.30232 l -22.62793,-93.30232 z m 95.19537,0 v 140.9382 h 30.27803 c 18.48068,0 24.22265,-6.63427 24.22265,-24.02939 v -92.87943 c 0,-17.39511 -5.74197,-24.02938 -24.22265,-24.02938 z m 90.13287,0 v 140.9382 h 24.26315 v -59.8246 h 8.7353 v 59.8246 h 24.26314 v -140.9382 h -24.26314 v 58.3365 h -8.7353 v -58.3365 z m 95.42145,0 v 117.75871 c 0,12.76088 4.89978,25.41291 28.63051,25.41291 23.73076,0 28.63053,-12.65203 28.63053,-25.41291 V 559.98913 h -24.26262 v 117.75871 c 0,1.68579 -2.02979,3.50215 -4.36791,3.50212 -2.33809,-4e-5 -4.36789,-1.8163 -4.36789,-3.50212 V 559.98913 Z m 95.50141,0 v 140.9382 h 20.56363 v -65.84976 c -3e-5,-5.93629 -0.29153,-13.2829 -0.7248,-21.01681 l 19.33137,86.86657 h 21.17007 v -140.9382 h -20.56367 v 65.8477 c 0,4.68045 0.17587,10.2314 0.4629,16.15988 l -18.2498,-82.00758 z m 89.774566,0 v 17.78073 h 16.157801 v 123.15747 h 18.2585 V 577.76986 h 16.1578 v -17.78073 z m 80.660435,0 v 140.9382 H 28.693005 V 688.95031 H 0.69450428 V 635.92542 H 24.784371 V 623.94789 H 0.69450428 V 571.96666 H 28.693005 v -11.97753 z m 74.859301,0 v 140.94025 h 5.767333 v -61.82017 h 11.1922 l 23.926365,61.82017 h 6.1861 L 86.697339,639.04872 c 10.029,-0.76572 18.274371,-9.4642 18.274371,-19.64764 v -39.70434 c 0,-10.6653 -9.042838,-19.70761 -19.708138,-19.70761 z m 5.767333,5.76527 h 15.919967 c 7.3143,0 13.942867,6.62805 13.942867,13.94234 v 39.70434 c 0,7.31429 -6.628567,13.94286 -13.942867,13.94286 H 69.343605 Z m -510.734055,14.26477 h 8.89472 c 1.33851,-2e-5 2.83933,1.50081 2.83933,2.83932 v 95.19947 c 0,1.33852 -1.50082,2.83934 -2.83933,2.83932 h -8.89472 z" />
  </g>
</svg>
