<svg xmlns="http://www.w3.org/2000/svg" xmlns:svg="http://www.w3.org/2000/svg" id="svg2" width="1000" height="272.492" version="1.1" viewBox="0 0 937.5 255.461"><title id="title4283">Mindhunter</title><metadata id="metadata7"/><g id="layer1" display="inline" transform="translate(775.26691,-502.72767)"><path id="rect4147" fill="#000" fill-opacity="1" fill-rule="evenodd" stroke="none" stroke-dasharray="none" stroke-dashoffset="0" stroke-linecap="round" stroke-linejoin="round" stroke-miterlimit="4" stroke-opacity="1" stroke-width="1.68" d="m -718.00546,559.98913 v 140.9382 h 5.76681 V 584.84381 c 0,-5.47804 -0.3783,-16.42951 -0.3783,-16.42951 l 24.5548,132.51303 h 7.11035 l 24.55532,-132.51303 c 0,0 -0.37882,10.95147 -0.37882,16.42951 v 116.08352 h 5.76732 v -140.9382 h -9.69182 l -23.80589,128.46959 -23.80794,-128.46959 z m 106.39323,0 v 140.9382 h 11.97753 v -140.9382 z m 53.6431,0 v 140.9382 h 16.03121 v -96.34515 l 23.36659,96.34515 h 16.80268 v -140.9382 h -16.03121 v 93.30232 l -22.62793,-93.30232 z m 95.19537,0 v 140.9382 h 30.27803 c 18.48068,0 24.22265,-6.63427 24.22265,-24.02939 v -92.87943 c 0,-17.39511 -5.74197,-24.02938 -24.22265,-24.02938 z m 90.13287,0 v 140.9382 h 24.26315 v -59.8246 h 8.7353 v 59.8246 h 24.26314 v -140.9382 h -24.26314 v 58.3365 h -8.7353 v -58.3365 z m 95.42145,0 v 117.75871 c 0,12.76088 4.89978,25.41291 28.63051,25.41291 23.73076,0 28.63053,-12.65203 28.63053,-25.41291 V 559.98913 h -24.26262 v 117.75871 c 0,1.68579 -2.02979,3.50215 -4.36791,3.50212 -2.33809,-4e-5 -4.36789,-1.8163 -4.36789,-3.50212 V 559.98913 Z m 95.50141,0 v 140.9382 h 20.56363 v -65.84976 c -3e-5,-5.93629 -0.29153,-13.2829 -0.7248,-21.01681 l 19.33137,86.86657 h 21.17007 v -140.9382 h -20.56367 v 65.8477 c 0,4.68045 0.17587,10.2314 0.4629,16.15988 l -18.2498,-82.00758 z m 89.774566,0 v 17.78073 h 16.157801 v 123.15747 h 18.2585 V 577.76986 h 16.1578 v -17.78073 z m 80.660435,0 v 140.9382 H 28.693005 V 688.95031 H 0.69450428 V 635.92542 H 24.784371 V 623.94789 H 0.69450428 V 571.96666 H 28.693005 v -11.97753 z m 74.859301,0 v 140.94025 h 5.767333 v -61.82017 h 11.1922 l 23.926365,61.82017 h 6.1861 L 86.697339,639.04872 c 10.029,-0.76572 18.274371,-9.4642 18.274371,-19.64764 v -39.70434 c 0,-10.6653 -9.042838,-19.70761 -19.708138,-19.70761 z m 5.767333,5.76527 h 15.919967 c 7.3143,0 13.942867,6.62805 13.942867,13.94234 v 39.70434 c 0,7.31429 -6.628567,13.94286 -13.942867,13.94286 H 69.343605 Z m -510.734055,14.26477 h 8.89472 c 1.33851,-2e-5 2.83933,1.50081 2.83933,2.83932 v 95.19947 c 0,1.33852 -1.50082,2.83934 -2.83933,2.83932 h -8.89472 z" clip-rule="nonzero" color="#000" color-interpolation="sRGB" color-interpolation-filters="linearRGB" color-rendering="auto" display="inline" enable-background="accumulate" image-rendering="auto" opacity="1" overflow="visible" shape-rendering="auto" text-rendering="auto" visibility="visible" style="isolation:auto;mix-blend-mode:normal;solid-color:#000;solid-opacity:1"/></g></svg>