<?xml version="1.0" encoding="UTF-8" standalone="no"?><!DOCTYPE svg PUBLIC "-//W3C//DTD SVG 1.1//EN" "http://www.w3.org/Graphics/SVG/1.1/DTD/svg11.dtd"><svg width="100%" height="100%" viewBox="0 0 918 125" version="1.1" xmlns="http://www.w3.org/2000/svg" xmlns:xlink="http://www.w3.org/1999/xlink" xml:space="preserve" xmlns:serif="http://www.serif.com/" style="fill-rule:evenodd;clip-rule:evenodd;stroke-linejoin:round;stroke-miterlimit:1.41421;"><path id="rect3335" d="M240.844,5l0,114.938l671.968,0l0,-114.938l-671.968,0Zm7.031,5.938l656.937,0l0,102.937l-656.937,0l0,-102.937Zm534.281,17.969c-6.361,0 -11.783,0.749 -16.281,2.25c-4.498,1.5 -7.954,3.663 -10.344,6.531c-2.39,2.868 -3.594,5.955 -3.594,9.25c0,5.119 2.544,9.471 7.625,13.031c3.614,2.53 9.917,4.671 18.875,6.406c6.964,1.354 11.418,2.283 13.375,2.813c2.861,0.794 4.852,1.739 6,2.812c1.148,1.074 1.719,2.377 1.719,3.907c0,2.383 -1.365,4.439 -4.094,6.218c-2.729,1.78 -6.774,2.688 -12.156,2.688c-5.081,0 -9.101,-0.999 -12.094,-3c-2.992,-2.001 -4.99,-5.14 -5.968,-9.406l-16.25,1.25c1.091,7.237 4.422,12.75 10.031,16.531c5.608,3.78 13.661,5.656 24.125,5.656c7.189,0 13.182,-0.801 18,-2.375c4.818,-1.574 8.552,-3.951 11.187,-7.187c2.635,-3.237 3.938,-6.731 3.938,-10.438c0,-4.089 -1.08,-7.501 -3.281,-10.281c-2.202,-2.78 -5.261,-4.99 -9.157,-6.594c-3.896,-1.603 -9.901,-3.156 -18.031,-4.656c-8.13,-1.5 -13.267,-2.93 -15.375,-4.313c-1.656,-1.088 -2.469,-2.407 -2.469,-3.937c0,-1.677 0.887,-3 2.657,-4c2.747,-1.559 6.55,-2.344 11.406,-2.344c4.705,0 8.21,0.731 10.562,2.188c2.353,1.456 3.91,3.831 4.625,7.156l16.688,-0.563c-0.264,-5.942 -3,-10.69 -8.25,-14.25c-5.251,-3.559 -13.081,-5.343 -23.469,-5.343Zm-777.156,1.093l0,9.938l24.062,0l0,54.75l12.75,0l0,-54.75l25,0l0,-9.938l-61.812,0Zm70.937,0l0,64.688l13.875,0l0,-28.688l41.188,0l0,28.688l13.844,0l0,-64.688l-13.844,0l0,24.969l-41.188,0l0,-24.969l-13.875,0Zm85.063,0l0,64.688l57.656,0l0,-9.688l-43.781,0l0,-18l41.812,0l0,-10l-41.812,0l0,-16.062l43.875,0l0,-10.938l-57.75,0Zm108.906,0l0,64.688l11.938,0l0,-54.313l24.25,54.313l12.281,0l24.687,-54.313l0,54.313l11.719,0l0,-64.688l-19.437,0l-22.688,50.844l-23.25,-50.844l-19.5,0Zm101.094,0l0,64.688l57.656,0l0,-9.688l-43.781,0l0,-18l41.812,0l0,-10l-41.812,0l0,-16.062l43.875,0l0,-10.938l-57.75,0Zm72,0l0,64.688l14.844,0l0,-48.188l38.687,48.188l15.313,0l0,-64.688l-12.938,0l0,49.219l-40.375,-49.219l-15.531,0Zm80,0l0,9.938l24.062,0l0,54.75l12.75,0l0,-54.75l25,0l0,-9.938l-61.812,0Zm83.969,0l-28.875,64.688l13.875,0l7.312,-15.781l30.844,0l7.594,15.781l14.781,0l-29.688,-64.688l-15.843,0Zm118.906,0l0,64.688l13.968,0l0,-64.688l-13.968,0Zm95.125,0l0,9.938l24.062,0l0,54.75l12.75,0l0,-54.75l25,0l0,-9.938l-61.812,0Zm-158.032,0.532l0,64.156l53.969,0l0,-9.688l-40.094,0l0,-54.468l-13.875,0Zm-48.25,14.562l10.907,24l-21.625,0l10.718,-24Z" style="fill:#fff;fill-rule:nonzero;"/></svg>
